<?xml version="1.0" encoding="UTF-8"?>
<svg version="1.1" xmlns="http://www.w3.org/2000/svg" width="184" height="82">
<path d="M0 0 C2.16919745 0.06790956 4.33373996 0.08199903 6.50390625 0.08740234 C16.87577199 0.23014617 16.87577199 0.23014617 19.43896484 2.0078125 C21.48023509 5.12343551 21.23509873 8.19790067 20.54296875 11.69287109 C17.94454982 18.49825402 14.790401 23.40485664 8.375 26.98583984 C6.54296875 27.69287109 6.54296875 27.69287109 3.54296875 27.69287109 C3.75953125 28.45212891 3.97609375 29.21138672 4.19921875 29.99365234 C4.47765625 30.98751953 4.75609375 31.98138672 5.04296875 33.00537109 C5.32140625 33.99150391 5.59984375 34.97763672 5.88671875 35.99365234 C6.54296875 38.69287109 6.54296875 38.69287109 6.54296875 41.69287109 C2.25296875 41.69287109 -2.03703125 41.69287109 -6.45703125 41.69287109 C-8.54631233 33.97161494 -10.00116755 26.67834553 -10.45703125 18.69287109 C-9.55339844 18.65548828 -8.64976563 18.61810547 -7.71875 18.57958984 C-5.94951172 18.48097656 -5.94951172 18.48097656 -4.14453125 18.38037109 C-2.97277344 18.32236328 -1.80101562 18.26435547 -0.59375 18.20458984 C2.49322248 17.9436713 2.49322248 17.9436713 4.3984375 16.33740234 C5.73843719 14.57707674 5.73843719 14.57707674 6.54296875 11.69287109 C-2.03703125 11.69287109 -10.61703125 11.69287109 -19.45703125 11.69287109 C-16.60799061 0.29670854 -11.07598986 -0.35558164 0 0 Z " fill="#003B79" transform="translate(93.45703125,18.30712890625)"/>
<path d="M0 0 C0.89460938 0.16242187 1.78921875 0.32484375 2.7109375 0.4921875 C0.18899598 4.99565449 -2.40876583 9.1717425 -5.2890625 13.4921875 C3.2909375 13.4921875 11.8709375 13.4921875 20.7109375 13.4921875 C17.91967472 20.47034445 17.91967472 20.47034445 14.7109375 23.4921875 C11.91509952 23.96509519 9.7385643 24.12668374 6.953125 24.05078125 C5.83673141 24.04728416 5.83673141 24.04728416 4.69778442 24.04371643 C3.12929778 24.03399581 1.56084539 24.01224689 -0.00732422 23.97924805 C-2.41296071 23.92971019 -4.81655507 23.91775981 -7.22265625 23.91210938 C-8.74741768 23.89802773 -10.27216131 23.88182487 -11.796875 23.86328125 C-12.51771271 23.85791855 -13.23855042 23.85255585 -13.98123169 23.84703064 C-19.05573337 23.72551663 -19.05573337 23.72551663 -21.2890625 21.4921875 C-22.02083462 15.45133395 -20.50711507 11.87077659 -17.1640625 7.0546875 C-16.7304541 6.42868652 -16.2968457 5.80268555 -15.85009766 5.15771484 C-11.38941942 -0.5402318 -7.08554666 -0.74028099 0 0 Z " fill="#003B79" transform="translate(34.2890625,36.5078125)"/>
<path d="M0 0 C-3.41869219 8.81662723 -3.41869219 8.81662723 -7 11 C-10.16015625 11.21484375 -10.16015625 11.21484375 -13.8125 11.1875 C-17.54814637 11.13565297 -17.54814637 11.13565297 -21 12 C-23.4067216 14.68442025 -25.01830592 17.4876505 -26.84765625 20.5859375 C-29 23 -29 23 -32.37109375 23.7265625 C-35.64491406 23.69132224 -38.76443455 23.48829418 -42 23 C-40.95831175 20.92758864 -39.85892125 18.92795909 -38.671875 16.93359375 C-37.40417234 14.70919025 -36.39781155 12.61918607 -35.390625 10.28515625 C-28.20687766 -4.29644806 -14.33609315 -1.37295777 0 0 Z " fill="#003B79" transform="translate(159,37)"/>
<path d="M0 0 C2.68149993 -0.38567131 2.68149993 -0.38567131 5 -1 C5 -0.34 5 0.32 5 1 C5.99 1.33 6.98 1.66 8 2 C8.66 1.67 9.32 1.34 10 1 C11.87379605 0.92966231 13.75001102 0.9156978 15.625 0.9375 C17.12933594 0.95103516 17.12933594 0.95103516 18.6640625 0.96484375 C19.43492188 0.97644531 20.20578125 0.98804687 21 1 C20.67 2.65 20.34 4.3 20 6 C19.38125 6.103125 18.7625 6.20625 18.125 6.3125 C15.63473516 6.87525373 15.63473516 6.87525373 14 10 C11.90625 10.29296875 11.90625 10.29296875 9.5 10.1875 C8.7059375 10.16042969 7.911875 10.13335937 7.09375 10.10546875 C6.4028125 10.07066406 5.711875 10.03585938 5 10 C4.34 10 3.68 10 3 10 C2.01 10 1.02 10 0 10 C0 9.01 0 8.02 0 7 C-0.66 7.99 -1.32 8.98 -2 10 C-5.5 10.1875 -5.5 10.1875 -9 10 C-9.66 10 -10.32 10 -11 10 C-13.66666667 10 -16.33333333 10 -19 10 C-19.66 10.66 -20.32 11.32 -21 12 C-23.68839385 12.26991906 -26.29141936 12.08737357 -29 12 C-28.67 11.34 -28.34 10.68 -28 10 C-28.33 10 -28.66 10 -29 10 C-30.66666667 10 -32.33333333 10 -34 10 C-34.33 9.01 -34.66 8.02 -35 7 C-32.97828464 3.60351819 -31.77922509 2.22263574 -27.9375 1.125 C-25 1 -25 1 -22 2 C-21.34 1.67 -20.68 1.34 -20 1 C-18.60415305 0.98009994 -17.20739624 1.00728036 -15.8125 1.0625 C-10.19039289 1.15288757 -5.42805431 -1.62841629 0 0 Z M-29 4 C-29.99 5.485 -29.99 5.485 -31 7 C-29.68 6.34 -28.36 5.68 -27 5 C-27.66 4.67 -28.32 4.34 -29 4 Z M-4 4 C-4 4.99 -4 5.98 -4 7 C-3.34 6.01 -2.68 5.02 -2 4 C-2.66 4 -3.32 4 -4 4 Z M1 4 C1.33 4.66 1.66 5.32 2 6 C2.33 5.34 2.66 4.68 3 4 C2.34 4 1.68 4 1 4 Z M-22 5 C-21.67 5.66 -21.34 6.32 -21 7 C-20.67 6.34 -20.34 5.68 -20 5 C-20.66 5 -21.32 5 -22 5 Z " fill="#003B79" transform="translate(42,70)"/>
<path d="M0 0 C1.62954061 0.00094616 3.25928086 0.03463541 4.88769531 0.09521484 C6.17767426 0.10794937 6.17767426 0.10794937 7.49371338 0.12094116 C10.23569993 0.15448181 12.97472569 0.22975724 15.71582031 0.30615234 C17.57645487 0.33625132 19.4371356 0.36362725 21.29785156 0.38818359 C25.85497884 0.45427474 30.40989797 0.55779705 34.96582031 0.68115234 C33.49591644 4.84587999 31.92285841 8.36976825 28.96582031 11.68115234 C25.98386911 12.50803978 23.11842199 12.38146493 20.04394531 12.26708984 C18.75396637 12.25435532 18.75396637 12.25435532 17.43792725 12.24136353 C14.6959407 12.20782288 11.95691493 12.13254744 9.21582031 12.05615234 C7.35518576 12.02605337 5.49450502 11.99867744 3.63378906 11.97412109 C-0.92333821 11.90802994 -5.47825734 11.80450764 -10.03417969 11.68115234 C-6.07375412 0.45994657 -6.07375412 0.45994657 0 0 Z " fill="#003B79" transform="translate(148.0341796875,18.31884765625)"/>
<path d="M0 0 C1.15680267 0.00424484 1.15680267 0.00424484 2.3369751 0.00857544 C4.79251832 0.01974237 7.2476926 0.04484021 9.703125 0.0703125 C11.37108847 0.08034682 13.03905768 0.08947189 14.70703125 0.09765625 C18.78920397 0.11967025 22.871102 0.15417583 26.953125 0.1953125 C25.98604444 1.92938799 25.01385828 3.66095472 24.00764465 5.37261963 C23.20785272 6.75502635 22.47220779 8.17478616 21.76831055 9.60839844 C18.64031235 12.34303035 14.90568758 11.68191359 10.91015625 11.5859375 C10.0265593 11.58027771 9.14296234 11.57461792 8.23258972 11.56878662 C5.40971757 11.54639117 2.58811362 11.49618977 -0.234375 11.4453125 C-2.14776813 11.42525156 -4.06118115 11.40700008 -5.97460938 11.390625 C-10.66585342 11.34651607 -15.35614918 11.27746735 -20.046875 11.1953125 C-17.94509641 6.49133184 -14.60082443 3.9099808 -10.35449219 1.05908203 C-6.94495789 -0.21714864 -3.58871704 -0.04972874 0 0 Z " fill="#003B79" transform="translate(50.046875,18.8046875)"/>
<path d="M0 0 C-1.62249941 0.83819158 -3.24808497 1.6704116 -4.875 2.5 C-5.77992187 2.9640625 -6.68484375 3.428125 -7.6171875 3.90625 C-10 5 -10 5 -12 5 C-11.67 5.66 -11.34 6.32 -11 7 C-10.236875 6.34 -9.47375 5.68 -8.6875 5 C-6 3 -6 3 -3 3 C-2.94550162 4.72880982 -2.90698312 6.45812712 -2.875 8.1875 C-2.85179687 9.15042969 -2.82859375 10.11335937 -2.8046875 11.10546875 C-3.01592669 14.23603359 -3.4645807 16.2625399 -5 19 C-10.70788542 22.6685842 -17.36067793 23.57165664 -24 24 C-23.48898407 19.65636456 -22.70656894 16.01668054 -21 12 C-21.55985596 12.2172876 -22.11971191 12.4345752 -22.6965332 12.65844727 C-25.23158184 13.63613532 -27.77185968 14.5994414 -30.3125 15.5625 C-31.63411133 16.07586914 -31.63411133 16.07586914 -32.98242188 16.59960938 C-33.82998047 16.91865234 -34.67753906 17.23769531 -35.55078125 17.56640625 C-36.33106689 17.86490479 -37.11135254 18.16340332 -37.9152832 18.47094727 C-40 19 -40 19 -43 18 C-26.29276355 7.62726078 -26.29276355 7.62726078 -16.52734375 4.80078125 C-12.98881702 3.67960972 -10.1502335 1.94376109 -7 0 C-3.86650268 -1.04449911 -3.01031744 -0.93423645 0 0 Z M-16 11 C-17.485 14.96 -17.485 14.96 -19 19 C-16.97954558 18.39816251 -14.97888961 17.72693904 -13 17 C-12.67 16.34 -12.34 15.68 -12 15 C-13.32 13.68 -14.64 12.36 -16 11 Z " fill="#EE7D11" transform="translate(43,1)"/>
<path d="M0 0 C3.328125 0.4921875 3.328125 0.4921875 5.75 1.125 C4.08279438 5.94663442 1.46309018 10.02969336 -1.25 14.3125 C-1.70117188 15.03630859 -2.15234375 15.76011719 -2.6171875 16.50585938 C-5.9824953 21.8574953 -5.9824953 21.8574953 -8.25 24.125 C-11.2890625 24.3203125 -11.2890625 24.3203125 -14.875 24.25 C-16.06351563 24.23195313 -17.25203125 24.21390625 -18.4765625 24.1953125 C-19.39179687 24.17210938 -20.30703125 24.14890625 -21.25 24.125 C-17.908225 14.52961096 -11.41585578 -0.16254778 0 0 Z " fill="#003B79" transform="translate(74.25,35.875)"/>
<path d="M0 0 C3.328125 0.4921875 3.328125 0.4921875 5.75 1.125 C2.92528126 9.23574211 -2.02059105 18.16155417 -8.25 24.125 C-12.93107702 25.61917199 -16.53022714 25.35823097 -21.25 24.125 C-17.908225 14.52961096 -11.41585578 -0.16254778 0 0 Z " fill="#003B79" transform="translate(122.25,35.875)"/>
<path d="M0 0 C1.32 0.33 2.64 0.66 4 1 C3.67 1.66 3.34 2.32 3 3 C3.66 2.67 4.32 2.34 5 2 C7.3329866 1.95977609 9.66706666 1.95679753 12 2 C12.33 2.66 12.66 3.32 13 4 C13.99 3.34 14.98 2.68 16 2 C18.69921875 1.8046875 18.69921875 1.8046875 21.6875 1.875 C23.17830078 1.90207031 23.17830078 1.90207031 24.69921875 1.9296875 C25.45847656 1.95289062 26.21773437 1.97609375 27 2 C27 1.34 27 0.68 27 0 C28.32 0.33 29.64 0.66 31 1 C28.97298644 4.64992796 26.91288808 7.99212644 24 11 C20.83270832 11.85196137 18.19343565 11.65172156 15 11 C14.67 10.01 14.34 9.02 14 8 C13.5875 8.495 13.175 8.99 12.75 9.5 C11 11 11 11 7 11 C7 10.01 7 9.02 7 8 C6.01 9.485 6.01 9.485 5 11 C2 11.1875 2 11.1875 -1 11 C-1.66 11 -2.32 11 -3 11 C-3.99 11 -4.98 11 -6 11 C-4.54955729 6.89041233 -2.48889248 3.56741255 0 0 Z " fill="#003B79" transform="translate(153,69)"/>
<path d="M0 0 C0 1.65 0 3.3 0 5 C-0.99 5.33 -1.98 5.66 -3 6 C-3.33 7.65 -3.66 9.3 -4 11 C-5.65 11 -7.3 11 -9 11 C-8.67 9.35 -8.34 7.7 -8 6 C-8.66 6 -9.32 6 -10 6 C-10 7.65 -10 9.3 -10 11 C-16.33333333 11 -22.66666667 11 -29 11 C-29 10.01 -29 9.02 -29 8 C-29.99 9.485 -29.99 9.485 -31 11 C-31.99 11 -32.98 11 -34 11 C-32.76341941 7.57562298 -31.64719559 4.55265289 -29 2 C-25.87376745 1.68099668 -23.82883747 1.58558126 -21 3 C-20.01 2.67 -19.02 2.34 -18 2 C-15.66702567 1.95907063 -13.33294775 1.95758277 -11 2 C-8.79837532 2.10742127 -8.79837532 2.10742127 -6.0625 1 C-3 0 -3 0 0 0 Z M-15 5 C-14 7 -14 7 -14 7 Z " fill="#003B79" transform="translate(146,69)"/>
<path d="M0 0 C1.34061543 0.30271961 2.67405895 0.63837971 4 1 C6.18703385 0.62092718 6.18703385 0.62092718 8 0 C8.66 0.99 9.32 1.98 10 3 C14.455 2.505 14.455 2.505 19 2 C17.76344399 5.42430894 16.59887381 8.40112619 14 11 C11.4375 11.25 11.4375 11.25 9 11 C8.34 11 7.68 11 7 11 C6.319375 10.814375 5.63875 10.62875 4.9375 10.4375 C4.298125 10.293125 3.65875 10.14875 3 10 C2.67 10.33 2.34 10.66 2 11 C-0.33297433 11.04092937 -2.66705225 11.04241723 -5 11 C-5 7.16119422 -4.67641174 5.35282349 -3 2 C-2.01 1.34 -1.02 0.68 0 0 Z M0 5 C0 8 0 8 0 8 Z M5 5 C5 8 5 8 5 8 Z " fill="#003B79" transform="translate(92,69)"/>
<path d="M0 0 C3.30249326 0.00358577 6.55576338 0.12202444 9.84765625 0.37890625 C9.39326172 1.51392578 9.39326172 1.51392578 8.9296875 2.671875 C8.12819141 4.67706196 7.33061611 6.68381707 6.53515625 8.69140625 C3.84765625 11.37890625 3.84765625 11.37890625 0.6953125 11.7578125 C-2.60718076 11.75422673 -5.86045088 11.63578806 -9.15234375 11.37890625 C-8.84941406 10.62222656 -8.54648438 9.86554687 -8.234375 9.0859375 C-7.43287891 7.08075054 -6.63530361 5.07399543 -5.83984375 3.06640625 C-3.15234375 0.37890625 -3.15234375 0.37890625 0 0 Z " fill="#003B79" transform="translate(130.15234375,18.62109375)"/>
<path d="M0 0 C0.33 0.66 0.66 1.32 1 2 C2.98 2 4.96 2 7 2 C7.3125 4.25 7.3125 4.25 7 7 C5.125 9.3125 5.125 9.3125 2 11 C-1.36174475 11.32334339 -4.63449311 11.23525873 -8 11 C-8.33 10.34 -8.66 9.68 -9 9 C-5.78571429 0 -5.78571429 0 0 0 Z M2 5 C1.01 6.485 1.01 6.485 0 8 C1.32 7.34 2.64 6.68 4 6 C3.34 5.67 2.68 5.34 2 5 Z " fill="#003B79" transform="translate(75,69)"/>
<path d="M0 0 C1.37478516 0.01740234 1.37478516 0.01740234 2.77734375 0.03515625 C3.69644531 0.04417969 4.61554687 0.05320312 5.5625 0.0625 C6.27277344 0.07410156 6.98304687 0.08570312 7.71484375 0.09765625 C7.71484375 0.75765625 7.71484375 1.41765625 7.71484375 2.09765625 C6.99296875 2.28328125 6.27109375 2.46890625 5.52734375 2.66015625 C2.08730453 4.41839852 0.89550826 6.39790588 -1.07421875 9.63671875 C-1.47382812 10.11882812 -1.8734375 10.6009375 -2.28515625 11.09765625 C-3.27515625 11.09765625 -4.26515625 11.09765625 -5.28515625 11.09765625 C-4.16063898 8.12571775 -3.06221834 5.76324938 -1.28515625 3.09765625 C-1.94515625 2.43765625 -2.60515625 1.77765625 -3.28515625 1.09765625 C-2.28515625 0.09765625 -2.28515625 0.09765625 0 0 Z " fill="#003B79" transform="translate(5.28515625,68.90234375)"/>
</svg>
