<?xml version="1.0" encoding="UTF-8"?>
<svg version="1.1" xmlns="http://www.w3.org/2000/svg" width="3000" height="2000">
<path d="M0 0 C1.01393231 -0.00172966 2.02786463 -0.00345932 3.07252216 -0.00524139 C6.44191945 -0.00958936 9.81126613 -0.00664731 13.18066406 -0.00341797 C15.60379552 -0.00443604 18.02692686 -0.0057769 20.45005798 -0.00741577 C26.32368673 -0.00984649 32.19729852 -0.00697722 38.07092363 -0.00117052 C42.83704729 0.00349821 47.6031675 0.00587993 52.36929321 0.00708008 C111.73134816 0.02488563 171.08762577 0.51234875 230.44628906 1.12939453 C229.98673608 2.54044093 229.52430616 3.95055052 229.06071472 5.36027527 C228.80351748 6.14563251 228.54632025 6.93098974 228.28132915 7.74014568 C226.94031095 11.57711859 225.25960707 15.24146579 223.55957031 18.93017578 C222.9981559 20.16354424 222.9981559 20.16354424 222.42539978 21.42182922 C221.62320803 23.18315768 220.81904342 24.94358872 220.01306152 26.70318604 C217.86816811 31.38656863 215.73837404 36.07681861 213.60644531 40.76611328 C213.17355194 41.71723999 212.74065857 42.6683667 212.29464722 43.64831543 C208.04417033 52.99441418 203.85998053 62.36937151 199.69628906 71.75439453 C199.37689362 72.47350006 199.05749817 73.19260559 198.72842407 73.9335022 C194.26520038 83.98324559 189.85385459 94.05495904 185.44628906 104.12939453 C304.74128906 104.62439453 304.74128906 104.62439453 426.44628906 105.12939453 C427.93128906 100.67439453 427.93128906 100.67439453 429.44628906 96.12939453 C430.70462973 93.16988602 431.98788868 90.24722922 433.33300781 87.32861328 C433.89442223 86.09524483 433.89442223 86.09524483 434.46717834 84.83695984 C435.26937009 83.07563139 436.07353471 81.31520034 436.8795166 79.55560303 C439.02441002 74.87222043 441.15420409 70.18197046 443.28613281 65.49267578 C443.93547287 64.06598572 443.93547287 64.06598572 444.59793091 62.61047363 C448.84840779 53.26437488 453.03259759 43.88941755 457.19628906 34.50439453 C457.67538223 33.42573624 457.67538223 33.42573624 458.16415405 32.32528687 C459.08702494 30.24727862 460.00911364 28.16892618 460.93066406 26.09033203 C461.36509575 25.11049095 461.36509575 25.11049095 461.80830383 24.1108551 C463.35762673 20.60993346 464.89405005 17.10379244 466.41699219 13.59130859 C466.89945404 12.48053452 466.89945404 12.48053452 467.3916626 11.34732056 C468.00946381 9.92325028 468.62523379 8.49829661 469.2387085 7.07235718 C471.33547908 2.24020452 471.33547908 2.24020452 472.44628906 1.12939453 C473.82242729 1.03294667 475.20348739 1.00567541 476.58300114 1.0063467 C477.48022485 1.00435565 478.37744856 1.00236461 479.30186087 1.00031322 C480.79745217 1.00468248 480.79745217 1.00468248 482.32325745 1.00914001 C483.37358483 1.00828559 484.42391221 1.00743116 485.50606769 1.00655085 C489.05459914 1.00489291 492.60308417 1.01042253 496.15161133 1.01586914 C498.68374633 1.01615097 501.21588141 1.01599336 503.74801636 1.01542664 C509.2144741 1.01519831 514.68091667 1.01804981 520.14737129 1.02366447 C528.05103208 1.03177716 535.95468708 1.03439446 543.85835158 1.03565247 C556.68022919 1.03784335 569.50210045 1.04450442 582.32397461 1.05395508 C594.78230762 1.06312826 607.24063891 1.07020955 619.69897461 1.07446289 C620.46636975 1.07472561 621.23376489 1.07498834 622.02441443 1.07525902 C625.87405009 1.07656402 629.72368577 1.07782774 633.57332146 1.07907093 C665.53098194 1.08944467 697.48863462 1.10706397 729.44628906 1.12939453 C728.65591744 5.50597687 727.18480681 9.24473153 725.30566406 13.25439453 C724.8285347 14.28979622 724.8285347 14.28979622 724.34176636 15.34611511 C723.65619251 16.83250541 722.96823474 18.31779804 722.27813721 19.80209351 C720.80506169 22.97101344 719.34395714 26.14540174 717.88235474 29.31962585 C717.13654747 30.93927461 716.39018624 32.5586684 715.64328003 34.17781067 C712.40447565 41.20293437 709.22542942 48.25330424 706.07128906 55.31689453 C705.01406629 57.68150867 703.95677251 60.04609106 702.89941406 62.41064453 C702.49252853 63.32090645 702.49252853 63.32090645 702.0774231 64.2495575 C698.3386414 72.61129132 694.57999934 80.9641046 690.82128906 89.31689453 C690.44263702 90.15838043 690.06398499 90.99986633 689.67385864 91.86685181 C679.8062422 113.79231022 669.88802544 135.69487042 659.97021484 157.59765625 C651.7383381 175.77764526 643.50750457 193.9577665 635.35351562 212.17285156 C630.85336164 222.22563763 626.34021717 232.27253495 621.82128906 242.31689453 C621.44801483 243.14671844 621.0747406 243.97654236 620.69015503 244.83151245 C616.18624894 254.84262867 611.67107686 264.84856955 607.14160156 274.84814453 C606.70528412 275.81158279 606.26896667 276.77502106 605.81942749 277.76765442 C603.70234232 282.44193963 601.58392551 287.11561417 599.46337891 291.78833008 C598.69723363 293.47882665 597.93111875 295.16933699 597.16503906 296.85986328 C596.81692169 297.62572754 596.46880432 298.3915918 596.11013794 299.18066406 C595.78729828 299.89359619 595.46445862 300.60652832 595.13183594 301.34106445 C594.85303589 301.95543869 594.57423584 302.56981293 594.2869873 303.20280457 C593.28815644 305.49177989 592.37007575 307.80925407 591.44628906 310.12939453 C559.42808855 310.15220068 527.40989034 310.16990088 495.3916836 310.18045986 C491.61276626 310.18171059 487.83384895 310.18300491 484.05493164 310.18432617 C482.92644659 310.18471964 482.92644659 310.18471964 481.77516385 310.18512105 C469.58913681 310.18947391 457.40311447 310.19735936 445.21709023 310.20654733 C432.71573919 310.21589452 420.21439063 310.22145241 407.71303624 310.22348303 C399.99729179 310.22485603 392.28156065 310.22919464 384.5658203 310.237311 C378.65220933 310.24321527 372.73860523 310.24385078 366.82499123 310.24250221 C364.39696673 310.24277794 361.96894175 310.24477524 359.54092026 310.24860001 C356.23208016 310.25355782 352.92329754 310.25238502 349.61445618 310.24964905 C348.16552403 310.25401831 348.16552403 310.25401831 346.68732053 310.25847584 C342.48029391 310.24904053 338.54556526 310.21217256 334.44628906 309.12939453 C338.26075518 299.63845773 342.51311747 290.37592751 346.82809448 281.10510254 C354.5431828 264.51952716 362.06597794 247.8682445 369.44628906 231.12939453 C375.71628906 216.93939453 381.98628906 202.74939453 388.44628906 188.12939453 C308.91628906 188.12939453 229.38628906 188.12939453 147.44628906 188.12939453 C123.80950679 241.85114443 123.80950679 241.85114443 100.71362305 295.8034668 C100.36698105 296.62401047 100.02033905 297.44455414 99.66319275 298.28996277 C99.01258024 299.83011867 98.3639334 301.37110687 97.71754456 302.91304016 C95.5590388 308.01664479 95.5590388 308.01664479 94.44628906 309.12939453 C87.96966472 310.04729751 81.63380022 310.27026219 75.10081482 310.24964905 C73.59469992 310.25093069 73.59469992 310.25093069 72.05815846 310.25223821 C68.71412815 310.25387735 65.37014869 310.2483974 62.02612305 310.24291992 C59.62088523 310.24263769 57.21564732 310.2427965 54.81040955 310.24336243 C48.97022959 310.24361927 43.13006612 310.23929422 37.28988992 310.23292477 C30.49053744 310.22575824 23.69118726 310.22427804 16.89183152 310.2231366 C4.76764658 310.22095139 -7.35653161 310.21430571 -19.48071289 310.20483398 C-31.25382453 310.19564612 -43.02693433 310.18857202 -54.80004883 310.18432617 C-55.52651124 310.18406345 -56.25297365 310.18380072 -57.00145007 310.18353004 C-60.64612773 310.18222494 -64.29080541 310.18096125 -67.9354831 310.17971814 C-98.14156388 310.16936206 -128.34763647 310.15168353 -158.55371094 310.12939453 C-157.94002674 306.91438598 -157.24265548 304.08804558 -155.90576172 301.09741211 C-155.56598801 300.33074219 -155.22621429 299.56407227 -154.87614441 298.77416992 C-154.50419449 297.94908936 -154.13224457 297.12400879 -153.74902344 296.27392578 C-153.35842239 295.39687988 -152.96782135 294.51983398 -152.56538391 293.61621094 C-151.27490835 290.72247192 -149.97695042 287.83215774 -148.67871094 284.94189453 C-147.76960583 282.90843305 -146.86083782 280.87482082 -145.95239258 278.84106445 C-138.05451266 261.17771922 -130.0843433 243.54681711 -122.090271 225.92683411 C-118.13409017 217.2067821 -114.18776996 208.48228099 -110.24221802 199.75741577 C-108.26311331 195.3812288 -106.28338071 191.0053259 -104.30371094 186.62939453 C-103.51204125 184.8793959 -102.72037459 183.1293959 -101.92871094 181.37939453 C-94.01204427 163.87939453 -86.0953776 146.37939453 -78.17871094 128.87939453 C-77.78685104 128.01317474 -77.39499115 127.14695496 -76.99125671 126.25448608 C-76.19944711 124.50417654 -75.40762785 122.75387137 -74.61579895 121.00357056 C-72.63874012 116.63334227 -70.66184812 112.26303866 -68.68530273 107.89257812 C-65.09789821 99.96068741 -61.50920946 92.02938945 -57.91441345 84.10084534 C-48.82238946 64.04747001 -39.76734509 43.97952507 -30.87669373 23.83587646 C-30.28190366 22.49613216 -29.68192118 21.15867882 -29.0763092 19.8237915 C-27.64864054 16.67085368 -26.31032143 13.5256073 -25.12646484 10.27246094 C-24.43496338 8.49427979 -24.43496338 8.49427979 -23.72949219 6.68017578 C-23.35348877 5.63128174 -22.97748535 4.5823877 -22.59008789 3.50170898 C-19.74768882 0.19040438 -17.55813993 0.60360292 -13.35802746 0.27722836 C-8.90251106 0.04234901 -4.46107203 -0.00973182 0 0 Z " fill="#006BB7" transform="translate(504.5537109375,844.87060546875)"/>
<path d="M0 0 C1.91885398 -0.00702436 3.83770774 -0.01411116 5.75656128 -0.02125549 C11.85463805 -0.04064884 17.95267674 -0.04569 24.05078125 -0.046875 C25.61116686 -0.04753778 25.61116686 -0.04753778 27.20307541 -0.04821396 C58.04935284 -0.05508228 88.74178762 0.21203368 119.48809814 2.94989014 C122.53147277 3.21793865 125.575818 3.47167471 128.62060547 3.72314453 C303.07776389 18.24692551 303.07776389 18.24692551 346.17578125 68.515625 C355.74418501 80.89310143 364.66589 96.92833899 364.42578125 113.015625 C364.41675781 113.80582031 364.40773438 114.59601563 364.3984375 115.41015625 C364.38103516 116.29767578 364.38103516 116.29767578 364.36328125 117.203125 C361.59154856 117.98376735 359.11812409 118.33294263 356.24176502 118.35131264 C355.42423655 118.35885398 354.60670808 118.36639531 353.76440603 118.37416518 C352.42536884 118.37900453 352.42536884 118.37900453 351.0592804 118.38394165 C350.10666154 118.39114617 349.15404268 118.39835068 348.17255658 118.40577352 C344.97222735 118.42854094 341.77190581 118.44407922 338.5715332 118.45947266 C336.28015453 118.47392075 333.98877779 118.48867839 331.69740295 118.50372314 C310.78909172 118.6339371 289.88027759 118.70008361 268.97163105 118.75156593 C266.17452781 118.75857449 263.3774249 118.76570153 260.58032227 118.77294922 C259.53755068 118.77564216 259.53755068 118.77564216 258.473713 118.7783895 C247.21512127 118.80844903 235.95699647 118.87321427 224.69864891 118.95163567 C213.13278816 119.03153111 201.56724639 119.07655084 190.00110787 119.09059179 C183.50982832 119.09945851 177.01944854 119.12372778 170.52843666 119.18526077 C164.42058409 119.24250509 158.31409531 119.25717939 152.20601463 119.23938751 C149.96666243 119.24026585 147.72725442 119.2565202 145.48814392 119.28943253 C128.54237562 119.52555255 128.54237562 119.52555255 123.09558678 116.22005844 C120.85689596 113.99591084 119.13508693 111.80149665 117.36328125 109.203125 C102.8863202 96.16026476 82.7564818 89.12302436 64.11328125 85.015625 C63.42451904 84.86061523 62.73575684 84.70560547 62.02612305 84.54589844 C45.72057769 81.19086299 29.13445804 80.82918153 12.55078125 80.890625 C11.52547302 80.89244781 10.50016479 80.89427063 9.44378662 80.89614868 C-16.4228546 80.97324185 -41.39210224 83.30137368 -66.63671875 89.203125 C-67.43932129 89.38568848 -68.24192383 89.56825195 -69.06884766 89.75634766 C-104.28834334 97.94323622 -138.58868962 117.17041489 -160.63671875 146.203125 C-161.2296875 146.96882812 -161.82265625 147.73453125 -162.43359375 148.5234375 C-171.30265448 160.52514812 -177.56391781 173.89377528 -181.63671875 188.203125 C-181.83652344 188.87601563 -182.03632812 189.54890625 -182.2421875 190.2421875 C-184.56202195 201.77245378 -181.67617243 211.87275551 -175.38671875 221.515625 C-161.25544857 240.42702885 -131.62244455 245.96024114 -109.63671875 249.203125 C-103.65297401 250.03851403 -97.65862535 250.70974835 -91.63671875 251.203125 C-90.13141602 251.33231323 -90.13141602 251.33231323 -88.59570312 251.46411133 C-59.66219361 253.68961126 -29.07658054 254.47849204 -0.63671875 248.203125 C0.27158691 248.01057129 1.17989258 247.81801758 2.11572266 247.61962891 C17.72261894 244.24691635 32.46330886 239.19911845 46.92578125 232.453125 C47.72749756 232.08356689 48.52921387 231.71400879 49.35522461 231.33325195 C53.34026205 229.41838447 57.06440447 227.49917644 60.55158234 224.76714516 C72.39721841 215.81021116 83.24177051 215.8297998 97.66992188 216.06787109 C100.08604311 216.07069695 102.50217291 216.06909852 104.91828918 216.06344604 C110.75885223 216.06088874 116.59775139 216.10390455 122.43793559 216.16782264 C129.24240167 216.239775 136.0466433 216.25431419 142.85143644 216.26570435 C154.98317471 216.28750807 167.11423474 216.35382974 179.24560547 216.44873047 C191.01933435 216.54073679 202.792878 216.6114142 214.56689453 216.65380859 C215.29450487 216.65643583 216.02211521 216.65906306 216.77177435 216.66176991 C220.4225405 216.67482174 224.07330795 216.68745847 227.72407627 216.69988894 C257.93762988 216.80329842 288.15036078 216.97995241 318.36328125 217.203125 C317.42539231 218.30513978 316.48636487 219.40618567 315.546875 220.50683594 C315.02407959 221.12008728 314.50128418 221.73333862 313.96264648 222.36517334 C284.03313252 256.75944345 239.66772041 277.71704026 197.36328125 292.203125 C196.34089355 292.55713379 195.31850586 292.91114258 194.26513672 293.27587891 C113.46877765 321.015051 22.61595493 330.04610781 -68.390625 330.40625 C-70.52889019 330.41326966 -72.66715516 330.4203565 -74.80541992 330.42750549 C-81.6033559 330.44691627 -88.40125786 330.45193923 -95.19921875 330.453125 C-96.35565258 330.45356686 -97.51208641 330.45400871 -98.70356369 330.45446396 C-132.76977254 330.46129566 -166.68776731 330.3297443 -200.63671875 327.203125 C-202.59146236 327.0296838 -204.54621518 326.85634629 -206.50097656 326.68310547 C-276.7565722 320.34322973 -360.62584376 310.23006005 -413.63671875 259.203125 C-414.61898438 258.31560547 -414.61898438 258.31560547 -415.62109375 257.41015625 C-428.89209953 245.08273116 -438.69752082 225.97314189 -439.77685547 207.85009766 C-440.94811812 176.02788209 -430.06908862 150.58006238 -408.44921875 127.203125 C-406.53000463 125.18419152 -404.58605618 123.19335762 -402.63671875 121.203125 C-401.89035156 120.40648437 -401.14398437 119.60984375 -400.375 118.7890625 C-384.83117704 102.52694828 -364.58712075 89.89445022 -344.83935547 79.37646484 C-343.27256376 78.54183827 -341.7094586 77.70027519 -340.14892578 76.85400391 C-263.61679821 35.38332382 -177.43353209 15.22711165 -58.82421875 2.453125 C-57.73722183 2.36424011 -57.73722183 2.36424011 -56.62826538 2.27355957 C-37.76656495 0.75737268 -18.9197335 0.04317996 0 0 Z " fill="#006BB6" transform="translate(1661.63671875,834.796875)"/>
<path d="M0 0 C85.47 0 170.94 0 259 0 C256.94238442 6.17284674 254.81687299 11.93458038 252.11328125 17.80078125 C251.73950348 18.62193924 251.36572571 19.44309723 250.98062134 20.28913879 C250.17893465 22.0493693 249.3752722 23.80870109 248.5697937 25.56719971 C246.40957693 30.28403215 244.26443368 35.00772134 242.1171875 39.73046875 C241.46444099 41.16459106 241.46444099 41.16459106 240.79850769 42.62768555 C236.79220473 51.43696507 232.85493593 60.27592539 228.9375 69.125 C221.401222 86.13487198 213.76772629 103.10026265 206.12380981 120.0619812 C202.9253395 127.16124934 199.74264022 134.26750137 196.5625 141.375 C191.24037015 153.26453724 185.87291243 165.1333406 180.5 177 C174.81578114 189.55464952 169.13854795 202.11226149 163.5 214.6875 C162.97857422 215.84958984 162.45714844 217.01167969 161.91992188 218.20898438 C161.2015918 219.81290039 161.2015918 219.81290039 160.46875 221.44921875 C160.06076172 222.36018311 159.65277344 223.27114746 159.23242188 224.2097168 C157.79596964 227.461938 156.40051124 230.73214045 155 234 C271.82 234 388.64 234 509 234 C508.19815144 238.0092428 507.37658893 240.72217027 505.7265625 244.35546875 C495.79712458 266.22774447 485.90056077 288.11454987 476 310 C273.38 310 70.76 310 -138 310 C-136.01343831 304.04031492 -134.00539902 298.47366958 -131.40234375 292.8125 C-131.05632111 292.04958649 -130.71029846 291.28667297 -130.35379028 290.50064087 C-129.60830514 288.85760789 -128.86093617 287.21542857 -128.11184692 285.57403564 C-126.07223248 281.10343146 -124.04794195 276.62589991 -122.0234375 272.1484375 C-121.60487991 271.22332367 -121.18632233 270.29820984 -120.75508118 269.34506226 C-116.44654143 259.80555025 -112.25097801 250.21766675 -108.0625 240.625 C-99.95425572 222.07163366 -91.62910131 203.62058458 -83.25773621 185.18473816 C-79.85825903 177.69542575 -76.48556391 170.1943415 -73.125 162.6875 C-72.6079248 161.53258057 -72.09084961 160.37766113 -71.55810547 159.18774414 C-70.54062909 156.9143254 -69.52337282 154.64080813 -68.50634766 152.3671875 C-65.94404452 146.63958866 -63.37858721 140.91340433 -60.8125 135.1875 C-60.28865723 134.01856201 -59.76481445 132.84962402 -59.22509766 131.64526367 C-54.1040487 120.22139262 -48.96434853 108.80592206 -43.82510376 97.39022827 C-39.04140751 86.7640151 -34.26340678 76.13532724 -29.5 65.5 C-24.17853981 53.61965081 -18.8415116 41.74634494 -13.5 29.875 C-13.11223389 29.01302002 -12.72446777 28.15104004 -12.32495117 27.26293945 C-11.20646146 24.77674558 -10.08765911 22.29069265 -8.96875 19.8046875 C-8.64213379 19.07865326 -8.31551758 18.35261902 -7.97900391 17.60458374 C-5.33396778 11.7295966 -2.66617188 5.86557813 0 0 Z " fill="#006BB6" transform="translate(2145,845)"/>
</svg>
