<?xml version="1.0" encoding="UTF-8"?>
<svg version="1.1" xmlns="http://www.w3.org/2000/svg" width="800" height="600">
<path d="M0 0 C32.01 0 64.02 0 97 0 C98.32 2.97 99.64 5.94 101 9 C103.35143175 5.60722334 103.35143175 5.60722334 106 0 C137.68 0 169.36 0 202 0 C202 5.94 202 11.88 202 18 C152.66666667 18 103.33333333 18 54 18 C53.505 17.01 53.505 17.01 53 16 C52.67 16.66 52.34 17.32 52 18 C34.84 18 17.68 18 0 18 C0 12.06 0 6.12 0 0 Z " fill="#1F70C1" transform="translate(465,275)"/>
<path d="M0 0 C60.06 0 120.12 0 182 0 C186 7 186 7 188 18 C125.96 18 63.92 18 0 18 C0 12.06 0 6.12 0 0 Z " fill="#1E6FC0" transform="translate(232,211)"/>
<path d="M0 0 C62.04 0 124.08 0 188 0 C186 10 186 10 182 18 C121.94 18 61.88 18 0 18 C0 12.06 0 6.12 0 0 Z " fill="#1F6FC0" transform="translate(232,371)"/>
<path d="M0 0 C18.01188834 -0.11607973 36.02364701 -0.20514347 54.03582954 -0.25906086 C62.4004813 -0.28476861 70.76489539 -0.31977563 79.12939453 -0.37719727 C86.42564721 -0.42726131 93.72172766 -0.45934492 101.01814735 -0.47044247 C104.87643202 -0.47692267 108.73422424 -0.4919944 112.59235001 -0.52865028 C116.23517736 -0.56297521 119.87731665 -0.57298097 123.52029037 -0.56553841 C125.47146204 -0.56753719 127.4225614 -0.59423914 129.37353516 -0.62210083 C140.81158937 -0.55643456 151.28083589 2.48378516 160.75 9.0625 C161.71421875 9.71347656 162.6784375 10.36445313 163.671875 11.03515625 C166 13 166 13 168 17 C112.56 17 57.12 17 0 17 C0 11.39 0 5.78 0 0 Z " fill="#1E6FC0" transform="translate(232,180)"/>
<path d="M0 0 C55.44 0 110.88 0 168 0 C165.86920628 4.26158743 164.5989652 5.33893392 160.75 7.9375 C159.35007812 8.91009766 159.35007812 8.91009766 157.921875 9.90234375 C147.51884551 15.93286691 137.44612267 17.73738476 125.55908203 17.56762695 C124.17772473 17.56621188 122.79636369 17.56701738 121.41500854 17.56983948 C117.71313518 17.57125722 114.0120941 17.54213921 110.31041193 17.50696969 C106.42409798 17.47542745 102.53775888 17.47275374 98.65133667 17.46684265 C91.31343313 17.45138517 83.97590803 17.41046821 76.63817012 17.3600952 C68.27530135 17.30394746 59.91241322 17.27665173 51.54940248 17.25161803 C34.36604426 17.19954362 17.18307684 17.11073835 0 17 C0 11.39 0 5.78 0 0 Z " fill="#1F6FC0" transform="translate(232,403)"/>
<path d="M0 0 C16.92471718 -0.18545965 33.84902649 -0.32809156 50.77452755 -0.41449738 C58.63397321 -0.45568974 66.49277461 -0.5118141 74.35180664 -0.60351562 C81.20450443 -0.68343659 88.05673551 -0.73490853 94.90988642 -0.75270796 C98.53643349 -0.76310776 102.16164584 -0.78741731 105.7877636 -0.84584045 C109.843396 -0.91064939 113.89673189 -0.91190784 117.95288086 -0.90820312 C119.14547012 -0.93696533 120.33805939 -0.96572754 121.56678772 -0.99536133 C129.05906766 -0.92143972 132.89471076 0.55117597 138.19086552 5.90961456 C145 13.77730803 145 13.77730803 145 18 C97.15 18 49.3 18 0 18 C0 12.06 0 6.12 0 0 Z " fill="#1E6FC0" transform="translate(266,307)"/>
<path d="M0 0 C47.85 0 95.7 0 145 0 C144.02905141 3.88379437 143.20825736 5.38595033 140.8125 8.4375 C140.24144531 9.17871094 139.67039062 9.91992188 139.08203125 10.68359375 C138.39496094 11.44800781 137.70789063 12.21242188 137 13 C136.22913055 13.86106857 135.45826111 14.72213715 134.66403198 15.60929871 C129.92062255 19.47181283 124.11422257 18.6545793 118.29345703 18.56762695 C117.01486313 18.56835709 115.73626923 18.56908722 114.41893005 18.56983948 C110.92524052 18.57127024 107.43241462 18.54193734 103.93892527 18.50696969 C100.28345562 18.47564851 96.62796472 18.47277095 92.97238159 18.46684265 C86.05565267 18.45132099 79.13932033 18.41031572 72.2227658 18.3600952 C64.34617003 18.30414911 56.46955501 18.27670208 48.59280992 18.25161803 C32.39496814 18.19939796 16.19755039 18.11047815 0 18 C0 12.06 0 6.12 0 0 Z " fill="#1E6FC1" transform="translate(266,275)"/>
<path d="M0 0 C39.27 0 78.54 0 119 0 C119 5.94 119 11.88 119 18 C79.73 18 40.46 18 0 18 C0 12.06 0 6.12 0 0 Z " fill="#1F6FC1" transform="translate(100,371)"/>
<path d="M0 0 C38.94 0 77.88 0 118 0 C118 5.94 118 11.88 118 18 C79.06 18 40.12 18 0 18 C0 12.06 0 6.12 0 0 Z " fill="#1F70C0" transform="translate(100,211)"/>
<path d="M0 0 C39.27 0 78.54 0 119 0 C119 5.61 119 11.22 119 17 C79.73 17 40.46 17 0 17 C0 11.39 0 5.78 0 0 Z " fill="#1F6FC1" transform="translate(100,403)"/>
<path d="M0 0 C38.94 0 77.88 0 118 0 C118 5.61 118 11.22 118 17 C79.06 17 40.12 17 0 17 C0 11.39 0 5.78 0 0 Z " fill="#1F70C0" transform="translate(100,180)"/>
<path d="M0 0 C0.79550735 0.00092179 1.59101469 0.00184359 2.41062832 0.00279331 C3.32073162 0.00141865 4.23083492 0.00004398 5.16851711 -0.00137234 C6.1748016 0.00222294 7.18108608 0.00581821 8.21786404 0.00952244 C9.27139568 0.00937641 10.32492733 0.00923038 11.41038418 0.00907993 C14.91125415 0.00977957 18.41207166 0.01757435 21.9129324 0.02539158 C24.33288958 0.02725558 26.75284714 0.02867957 29.17280483 0.0296793 C35.55642639 0.03350591 41.94002536 0.04333742 48.32363796 0.05438328 C54.83191529 0.06459432 61.34019625 0.06917626 67.84847927 0.0742197 C80.62908789 0.08495956 93.40968082 0.10184671 106.19027615 0.12304783 C107.02706892 2.74699088 107.85984557 5.37209167 108.69027615 7.99804783 C109.04799099 9.11759861 109.04799099 9.11759861 109.4129324 10.25976658 C111.19027615 15.89648533 111.19027615 15.89648533 111.19027615 18.12304783 C73.57027615 18.12304783 35.95027615 18.12304783 -2.80972385 18.12304783 C-2.80972385 0.19104043 -2.80972385 0.19104043 0 0 Z " fill="#1F70C1" transform="translate(433.80972385406494,210.87695217132568)"/>
<path d="M0 0 C35.64 0 71.28 0 108 0 C108 5.94 108 11.88 108 18 C70.71 18 33.42 18 -5 18 C-3 9 -3 9 0 0 Z " fill="#1F70C1" transform="translate(592,211)"/>
<path d="M0 0 C32.01 0 64.02 0 97 0 C102 12 102 12 103 17 C69.01 17 35.02 17 0 17 C0 11.39 0 5.78 0 0 Z " fill="#1F70C1" transform="translate(431,180)"/>
<path d="M0 0 C31.68 0 63.36 0 96 0 C96 5.61 96 11.22 96 17 C62.34 17 28.68 17 -6 17 C-4.02 11.39 -2.04 5.78 0 0 Z " fill="#1F70C1" transform="translate(604,180)"/>
<path d="M0 0 C28.38 0 56.76 0 86 0 C86 5.94 86 11.88 86 18 C55.97 18 25.94 18 -5 18 C-4 11 -4 11 0 0 Z " fill="#1E6FC1" transform="translate(581,243)"/>
<path d="M0 0 C28.38 0 56.76 0 86 0 C91 14 91 14 91 18 C60.97 18 30.94 18 0 18 C0 12.06 0 6.12 0 0 Z " fill="#1F70C1" transform="translate(465,243)"/>
<path d="M0 0 C28.05 0 56.1 0 85 0 C85 5.94 85 11.88 85 18 C56.95 18 28.9 18 0 18 C0 12.06 0 6.12 0 0 Z " fill="#1F70C1" transform="translate(615,371)"/>
<path d="M0 0 C28.05 0 56.1 0 85 0 C85 5.94 85 11.88 85 18 C56.95 18 28.9 18 0 18 C0 12.06 0 6.12 0 0 Z " fill="#1F70C0" transform="translate(432,371)"/>
<path d="M0 0 C28.05 0 56.1 0 85 0 C85 5.61 85 11.22 85 17 C56.95 17 28.9 17 0 17 C0 11.39 0 5.78 0 0 Z " fill="#1F70C1" transform="translate(615,403)"/>
<path d="M0 0 C28.05 0 56.1 0 85 0 C85 5.61 85 11.22 85 17 C56.95 17 28.9 17 0 17 C0 11.39 0 5.78 0 0 Z " fill="#1F6FC0" transform="translate(432,403)"/>
<path d="M0 0 C27.39 0 54.78 0 83 0 C80 11 80 11 77 18 C53.57 18 30.14 18 6 18 C0 3 0 3 0 0 Z " fill="#1E70C1" transform="translate(525,307)"/>
<path d="M0 0 C20.13 0 40.26 0 61 0 C59.02 5.94 57.04 11.88 55 18 C38.83 18 22.66 18 6 18 C4.02 12.06 2.04 6.12 0 0 Z " fill="#1E70C0" transform="translate(536,339)"/>
<path d="M0 0 C17.16 0 34.32 0 52 0 C55 9 55 9 55 18 C36.85 18 18.7 18 0 18 C0 12.06 0 6.12 0 0 Z " fill="#1F70C0" transform="translate(366,339)"/>
<path d="M0 0 C18.15 0 36.3 0 55 0 C55 9 55 9 52 18 C34.84 18 17.68 18 0 18 C0 12.06 0 6.12 0 0 Z " fill="#1F6FC1" transform="translate(366,243)"/>
<path d="M0 0 C17.16 0 34.32 0 52 0 C52 5.94 52 11.88 52 18 C34.84 18 17.68 18 0 18 C0 12.06 0 6.12 0 0 Z " fill="#1E70C0" transform="translate(615,339)"/>
<path d="M0 0 C17.16 0 34.32 0 52 0 C52 5.94 52 11.88 52 18 C34.84 18 17.68 18 0 18 C0 12.06 0 6.12 0 0 Z " fill="#1F70C0" transform="translate(465,339)"/>
<path d="M0 0 C17.16 0 34.32 0 52 0 C52 5.94 52 11.88 52 18 C34.84 18 17.68 18 0 18 C0 12.06 0 6.12 0 0 Z " fill="#1F6FC0" transform="translate(266,339)"/>
<path d="M0 0 C17.16 0 34.32 0 52 0 C52 5.94 52 11.88 52 18 C34.84 18 17.68 18 0 18 C0 12.06 0 6.12 0 0 Z " fill="#1E70C0" transform="translate(133,339)"/>
<path d="M0 0 C17.16 0 34.32 0 52 0 C52 5.94 52 11.88 52 18 C34.84 18 17.68 18 0 18 C0 12.06 0 6.12 0 0 Z " fill="#1F70C1" transform="translate(615,307)"/>
<path d="M0 0 C17.16 0 34.32 0 52 0 C52 5.94 52 11.88 52 18 C34.84 18 17.68 18 0 18 C0 12.06 0 6.12 0 0 Z " fill="#1F70C1" transform="translate(465,307)"/>
<path d="M0 0 C17.16 0 34.32 0 52 0 C52 5.94 52 11.88 52 18 C34.84 18 17.68 18 0 18 C0 12.06 0 6.12 0 0 Z " fill="#1F70C1" transform="translate(133,307)"/>
<path d="M0 0 C17.16 0 34.32 0 52 0 C52 5.94 52 11.88 52 18 C34.84 18 17.68 18 0 18 C0 12.06 0 6.12 0 0 Z " fill="#1F70C1" transform="translate(133,275)"/>
<path d="M0 0 C17.16 0 34.32 0 52 0 C52 5.94 52 11.88 52 18 C34.84 18 17.68 18 0 18 C0 12.06 0 6.12 0 0 Z " fill="#1F70C1" transform="translate(266,243)"/>
<path d="M0 0 C17.16 0 34.32 0 52 0 C52 5.94 52 11.88 52 18 C34.84 18 17.68 18 0 18 C0 12.06 0 6.12 0 0 Z " fill="#1F70C1" transform="translate(133,243)"/>
<path d="M0 0 C12.21 0 24.42 0 37 0 C36.21238999 3.93805004 35.26873222 7.46246118 34 11.25 C33.4740625 12.83554687 33.4740625 12.83554687 32.9375 14.453125 C32 17 32 17 31 18 C29.14630389 18.08737645 27.28932459 18.10698153 25.43359375 18.09765625 C24.30888672 18.09443359 23.18417969 18.09121094 22.02539062 18.08789062 C20.84138672 18.07951172 19.65738281 18.07113281 18.4375 18.0625 C17.24962891 18.05798828 16.06175781 18.05347656 14.83789062 18.04882812 C11.89187774 18.03699675 8.94596319 18.02051287 6 18 C4.9936345 15.56495491 3.99473587 13.12729136 3 10.6875 C2.71382812 9.99720703 2.42765625 9.30691406 2.1328125 8.59570312 C0.91089256 5.58454326 0 3.28113016 0 0 Z " fill="#1E70C1" transform="translate(548,371)"/>
<path d="M0 0 C4.95 0 9.9 0 15 0 C13.31108451 5.87099194 11.53630629 11.44428147 9 17 C8.01 17 7.02 17 6 17 C4.02 11.39 2.04 5.78 0 0 Z " fill="#1E70C0" transform="translate(559,403)"/>
</svg>
