<?xml version="1.0" encoding="UTF-8"?>
<svg version="1.1" xmlns="http://www.w3.org/2000/svg" width="917" height="917">
<path d="M0 0 C1.29744141 -0.00386719 2.59488281 -0.00773438 3.93164062 -0.01171875 C10.99655731 -0.00455715 17.92726542 0.22105141 24.9375 1.125 C24.9375 1.785 24.9375 2.445 24.9375 3.125 C26.030625 3.08375 27.12375 3.0425 28.25 3 C33.59953382 2.98079162 38.71592235 4.04996931 43.9375 5.125 C43.9375 5.785 43.9375 6.445 43.9375 7.125 C45.175 7.269375 46.4125 7.41375 47.6875 7.5625 C50.50254499 7.91188502 53.2076497 8.32879366 55.9375 9.125 C55.9375 9.785 55.9375 10.445 55.9375 11.125 C57.030625 11.269375 58.12375 11.41375 59.25 11.5625 C62.9375 12.125 62.9375 12.125 65.9375 13.125 C65.9375 13.785 65.9375 14.445 65.9375 15.125 C68.5775 15.785 71.2175 16.445 73.9375 17.125 C73.9375 17.785 73.9375 18.445 73.9375 19.125 C75.5875 19.455 77.2375 19.785 78.9375 20.125 C78.9375 20.785 78.9375 21.445 78.9375 22.125 C80.030625 22.393125 81.12375 22.66125 82.25 22.9375 C85.64755053 24.03162644 86.77338374 24.50528032 88.9375 27.125 C89.5975 27.455 90.2575 27.785 90.9375 28.125 C90.9375 28.785 90.9375 29.445 90.9375 30.125 C91.80375 30.310625 92.67 30.49625 93.5625 30.6875 C97.44641856 32.34176161 98.87867404 34.10018076 101.4375 37.33203125 C103.05581971 39.37477263 103.05581971 39.37477263 105.9375 41.625 C109.32235622 44.44571352 112.47822677 47.44481099 114.9375 51.125 C114.9375 52.115 114.9375 53.105 114.9375 54.125 C115.72125 54.33125 116.505 54.5375 117.3125 54.75 C119.9375 56.125 119.9375 56.125 121.25 59.25 C121.476875 60.19875 121.70375 61.1475 121.9375 62.125 C122.5975 62.125 123.2575 62.125 123.9375 62.125 C125.3981285 64.77238916 125.9375 66.01948334 125.9375 69.125 C126.9275 69.455 127.9175 69.785 128.9375 70.125 C129.2675 71.775 129.5975 73.425 129.9375 75.125 C130.5975 75.125 131.2575 75.125 131.9375 75.125 C132.5975 77.765 133.2575 80.405 133.9375 83.125 C134.5975 83.125 135.2575 83.125 135.9375 83.125 C137.25376692 86.74473402 137.9375 89.22067131 137.9375 93.125 C138.5975 93.125 139.2575 93.125 139.9375 93.125 C141.36008812 96.94820557 142.17792276 100.03781305 141.9375 104.125 C142.5975 104.125 143.2575 104.125 143.9375 104.125 C145.19591946 110.86653283 146.20154456 117.25984138 145.9375 124.125 C146.5975 124.125 147.2575 124.125 147.9375 124.125 C147.9375 134.355 147.9375 144.585 147.9375 155.125 C147.2775 155.125 146.6175 155.125 145.9375 155.125 C145.97875 156.3625 146.02 157.6 146.0625 158.875 C146.08121192 164.74118748 145.02668033 170.37762878 143.9375 176.125 C143.2775 176.125 142.6175 176.125 141.9375 176.125 C141.87691406 176.80046875 141.81632812 177.4759375 141.75390625 178.171875 C141.67011719 179.06390625 141.58632813 179.9559375 141.5 180.875 C141.41878906 181.75671875 141.33757812 182.6384375 141.25390625 183.546875 C140.97511535 185.81850452 140.54959423 187.92351823 139.9375 190.125 C139.2775 190.125 138.6175 190.125 137.9375 190.125 C137.2775 193.095 136.6175 196.065 135.9375 199.125 C135.2775 199.125 134.6175 199.125 133.9375 199.125 C133.793125 199.888125 133.64875 200.65125 133.5 201.4375 C132.9375 204.125 132.9375 204.125 131.9375 207.125 C131.2775 207.125 130.6175 207.125 129.9375 207.125 C129.793125 207.723125 129.64875 208.32125 129.5 208.9375 C129.0502561 210.68650404 128.50857659 212.41177023 127.9375 214.125 C127.2775 214.455 126.6175 214.785 125.9375 215.125 C124.80399466 217.14169827 124.80399466 217.14169827 123.9375 219.125 C123.2775 219.125 122.6175 219.125 121.9375 219.125 C121.834375 219.764375 121.73125 220.40375 121.625 221.0625 C121.398125 221.743125 121.17125 222.42375 120.9375 223.125 C119.9475 223.455 118.9575 223.785 117.9375 224.125 C117.855 224.8675 117.7725 225.61 117.6875 226.375 C116.78940201 229.66802595 115.55333926 230.98476788 112.9375 233.125 C112.2775 233.125 111.6175 233.125 110.9375 233.125 C110.628125 234.2078125 110.628125 234.2078125 110.3125 235.3125 C108.46221012 239.09718384 106.33509562 240.64758653 102.9375 243.125 C102.2775 243.125 101.6175 243.125 100.9375 243.125 C100.9375 243.785 100.9375 244.445 100.9375 245.125 C97.57029972 248.26261844 95.43102265 250.12643941 90.9375 251.125 C90.6075 252.115 90.2775 253.105 89.9375 254.125 C88.9475 254.455 87.9575 254.785 86.9375 255.125 C86.6075 255.785 86.2775 256.445 85.9375 257.125 C81.14617943 258.84987541 77.01033639 259.33205455 71.9375 259.125 C71.9375 259.785 71.9375 260.445 71.9375 261.125 C69.2975 261.125 66.6575 261.125 63.9375 261.125 C63.9375 260.465 63.9375 259.805 63.9375 259.125 C63.32261719 259.06441406 62.70773437 259.00382812 62.07421875 258.94140625 C61.26597656 258.85761719 60.45773437 258.77382813 59.625 258.6875 C58.82449219 258.60628906 58.02398437 258.52507812 57.19921875 258.44140625 C53.23406794 257.88669603 51.54647854 256.9435403 49.125 253.875 C47.13171053 251.43433883 45.20587766 249.4528226 42.6875 247.5625 C39.57841964 244.80672422 39.2170179 242.96355371 37.9375 239.125 C36.28052621 238.43459426 34.6119239 237.7719365 32.9375 237.125 C31.28144102 235.46042658 29.83291206 233.6975804 28.36328125 231.8671875 C26.86455088 229.96107987 26.86455088 229.96107987 24.5625 227.875 C22.9375 226.125 22.9375 226.125 22.9375 223.125 C21.9475 222.795 20.9575 222.465 19.9375 222.125 C18.74376207 220.69914636 17.55412413 219.26936556 16.3984375 217.8125 C14.34525489 215.44090939 12.00529448 213.50646922 9.5859375 211.51953125 C5.25362421 207.8545174 5.25362421 207.8545174 4.125 205.25 C2.7007509 202.70134371 0.79780115 201.27968697 -1.47265625 199.4921875 C-3.12741181 198.06917904 -4.44412177 196.57227627 -5.8125 194.875 C-7.76881884 192.10140062 -7.76881884 192.10140062 -10.0625 191.125 C-10.0625 190.135 -10.0625 189.145 -10.0625 188.125 C-9.4025 188.125 -8.7425 188.125 -8.0625 188.125 C-8.0625 188.785 -8.0625 189.445 -8.0625 190.125 C-4.1025 190.125 -0.1425 190.125 3.9375 190.125 C3.9375 189.465 3.9375 188.805 3.9375 188.125 C5.6866497 187.78723316 7.43686145 187.45496329 9.1875 187.125 C10.16203125 186.939375 11.1365625 186.75375 12.140625 186.5625 C14.9375 186.125 14.9375 186.125 18.9375 186.125 C18.9375 185.465 18.9375 184.805 18.9375 184.125 C20.2575 183.795 21.5775 183.465 22.9375 183.125 C22.9375 182.465 22.9375 181.805 22.9375 181.125 C24.9175 180.465 26.8975 179.805 28.9375 179.125 C28.9375 178.465 28.9375 177.805 28.9375 177.125 C30.8125 175 30.8125 175 32.9375 173.125 C33.5975 173.125 34.2575 173.125 34.9375 173.125 C35.123125 172.1659375 35.123125 172.1659375 35.3125 171.1875 C35.51875 170.506875 35.725 169.82625 35.9375 169.125 C36.5975 168.795 37.2575 168.465 37.9375 168.125 C38.65909424 166.48136866 39.33101421 164.81449614 39.9375 163.125 C40.5975 163.125 41.2575 163.125 41.9375 163.125 C43.42599906 151.82835535 43.52169877 140.41241623 41.9375 129.125 C41.2775 129.125 40.6175 129.125 39.9375 129.125 C39.710625 128.01125 39.48375 126.8975 39.25 125.75 C38.816875 124.55375 38.38375 123.3575 37.9375 122.125 C35.5944191 121.00414688 35.5944191 121.00414688 32.9375 120.125 C31.27083333 118.125 29.60416667 116.125 27.9375 114.125 C25.2860518 112.72680488 25.2860518 112.72680488 22.9375 112.125 C22.9375 111.465 22.9375 110.805 22.9375 110.125 C19.3075 109.465 15.6775 108.805 11.9375 108.125 C11.9375 107.465 11.9375 106.805 11.9375 106.125 C0.3875 106.125 -11.1625 106.125 -23.0625 106.125 C-23.0625 106.785 -23.0625 107.445 -23.0625 108.125 C-26.93934087 109.31787411 -29.97871923 110.125 -34.0625 110.125 C-34.0625 110.785 -34.0625 111.445 -34.0625 112.125 C-36.0425 112.785 -38.0225 113.445 -40.0625 114.125 C-40.0625 114.785 -40.0625 115.445 -40.0625 116.125 C-41.5165625 116.5271875 -41.5165625 116.5271875 -43 116.9375 C-44.010625 117.329375 -45.02125 117.72125 -46.0625 118.125 C-46.5575 119.61 -46.5575 119.61 -47.0625 121.125 C-48.5475 121.62 -48.5475 121.62 -50.0625 122.125 C-51.73317133 124.12165598 -53.40002986 126.12151034 -55.0625 128.125 C-55.7225 128.125 -56.3825 128.125 -57.0625 128.125 C-57.35125 128.929375 -57.64 129.73375 -57.9375 130.5625 C-59.0625 133.125 -59.0625 133.125 -61.0625 134.125 C-62.19600534 136.14169827 -62.19600534 136.14169827 -63.0625 138.125 C-63.7225 138.125 -64.3825 138.125 -65.0625 138.125 C-65.7225 141.095 -66.3825 144.065 -67.0625 147.125 C-67.7225 147.125 -68.3825 147.125 -69.0625 147.125 C-70.0525 151.085 -70.0525 151.085 -71.0625 155.125 C-71.7225 155.125 -72.3825 155.125 -73.0625 155.125 C-73.12308594 155.71667969 -73.18367188 156.30835938 -73.24609375 156.91796875 C-73.68262371 161.03478208 -74.14921346 165.08044533 -75.0625 169.125 C-75.7225 169.125 -76.3825 169.125 -77.0625 169.125 C-77.0625 185.295 -77.0625 201.465 -77.0625 218.125 C-76.4025 218.125 -75.7425 218.125 -75.0625 218.125 C-74.72401348 220.01992006 -74.39193089 221.91598466 -74.0625 223.8125 C-73.876875 224.86824219 -73.69125 225.92398438 -73.5 227.01171875 C-73.11181926 229.77404062 -72.97990024 232.34242043 -73.0625 235.125 C-72.4025 235.125 -71.7425 235.125 -71.0625 235.125 C-69.92485649 239.39116316 -69.0625 242.68986311 -69.0625 247.125 C-68.4025 247.125 -67.7425 247.125 -67.0625 247.125 C-66.4025 250.425 -65.7425 253.725 -65.0625 257.125 C-64.4025 257.125 -63.7425 257.125 -63.0625 257.125 C-61.80585022 260.03100261 -61.0625 261.92104584 -61.0625 265.125 C-60.0725 265.455 -59.0825 265.785 -58.0625 266.125 C-57.5675 267.61 -57.5675 267.61 -57.0625 269.125 C-56.4025 269.455 -55.7425 269.785 -55.0625 270.125 C-55.0625 271.115 -55.0625 272.105 -55.0625 273.125 C-56.3825 272.795 -57.7025 272.465 -59.0625 272.125 C-59.0625 271.465 -59.0625 270.805 -59.0625 270.125 C-60.01125 269.980625 -60.96 269.83625 -61.9375 269.6875 C-65.0625 269.125 -65.0625 269.125 -67.0625 268.125 C-67.0625 267.465 -67.0625 266.805 -67.0625 266.125 C-69.0425 265.795 -71.0225 265.465 -73.0625 265.125 C-73.0625 264.465 -73.0625 263.805 -73.0625 263.125 C-75.0425 262.465 -77.0225 261.805 -79.0625 261.125 C-79.0625 260.465 -79.0625 259.805 -79.0625 259.125 C-79.660625 258.980625 -80.25875 258.83625 -80.875 258.6875 C-82.62400404 258.2377561 -84.34927023 257.69607659 -86.0625 257.125 C-86.0625 256.465 -86.0625 255.805 -86.0625 255.125 C-86.949375 254.91875 -87.83625 254.7125 -88.75 254.5 C-92.82253769 252.80951266 -94.35661434 250.54296084 -97.0625 247.125 C-97.7225 246.795 -98.3825 246.465 -99.0625 246.125 C-101.60025971 244.85612014 -102.9019854 242.97768839 -104.62890625 240.77734375 C-106.70745638 238.38163066 -109.12512849 236.47992578 -111.609375 234.51953125 C-113.0625 233.125 -113.0625 233.125 -114.0625 230.125 C-114.743125 229.465 -115.42375 228.805 -116.125 228.125 C-118.0625 226.125 -118.0625 226.125 -118.0625 223.125 C-119.0525 222.795 -120.0425 222.465 -121.0625 222.125 C-121.75 220.0625 -121.75 220.0625 -122.0625 218.125 C-122.7225 218.125 -123.3825 218.125 -124.0625 218.125 C-125.5231285 215.47761084 -126.0625 214.23051666 -126.0625 211.125 C-127.0525 210.795 -128.0425 210.465 -129.0625 210.125 C-129.0625 209.135 -129.0625 208.145 -129.0625 207.125 C-129.7225 207.125 -130.3825 207.125 -131.0625 207.125 C-132.31914978 204.21899739 -133.0625 202.32895416 -133.0625 199.125 C-133.7225 199.125 -134.3825 199.125 -135.0625 199.125 C-135.7225 196.155 -136.3825 193.185 -137.0625 190.125 C-137.7225 190.125 -138.3825 190.125 -139.0625 190.125 C-141.35862756 180.71497722 -141.35862756 180.71497722 -141.0625 176.125 C-141.7225 176.125 -142.3825 176.125 -143.0625 176.125 C-144.50044854 168.04937827 -145.35849372 160.3306037 -145.0625 152.125 C-145.7225 152.125 -146.3825 152.125 -147.0625 152.125 C-147.0625 144.865 -147.0625 137.605 -147.0625 130.125 C-146.4025 130.125 -145.7425 130.125 -145.0625 130.125 C-145.08570313 129.39796875 -145.10890625 128.6709375 -145.1328125 127.921875 C-145.26717669 120.4358699 -144.51976999 113.46339529 -143.0625 106.125 C-142.4025 106.125 -141.7425 106.125 -141.0625 106.125 C-141.00191406 105.52171875 -140.94132812 104.9184375 -140.87890625 104.296875 C-140.79511719 103.49765625 -140.71132813 102.6984375 -140.625 101.875 C-140.54378906 101.08609375 -140.46257812 100.2971875 -140.37890625 99.484375 C-140.08615007 97.30135361 -139.64185581 95.2476818 -139.0625 93.125 C-138.4025 93.125 -137.7425 93.125 -137.0625 93.125 C-136.918125 92.031875 -136.77375 90.93875 -136.625 89.8125 C-136.0625 86.125 -136.0625 86.125 -135.0625 83.125 C-134.4025 83.125 -133.7425 83.125 -133.0625 83.125 C-132.4025 80.485 -131.7425 77.845 -131.0625 75.125 C-130.4025 75.125 -129.7425 75.125 -129.0625 75.125 C-128.7325 73.805 -128.4025 72.485 -128.0625 71.125 C-127.4025 71.125 -126.7425 71.125 -126.0625 71.125 C-125.4025 69.145 -124.7425 67.165 -124.0625 65.125 C-123.4025 65.125 -122.7425 65.125 -122.0625 65.125 C-121.77375 64.155625 -121.485 63.18625 -121.1875 62.1875 C-120.0625 59.125 -120.0625 59.125 -118.0625 58.125 C-116.92899466 56.10830173 -116.92899466 56.10830173 -116.0625 54.125 C-115.4025 54.125 -114.7425 54.125 -114.0625 54.125 C-113.4025 52.805 -112.7425 51.485 -112.0625 50.125 C-111.4025 50.125 -110.7425 50.125 -110.0625 50.125 C-110.000625 49.58875 -109.93875 49.0525 -109.875 48.5 C-108.30627718 43.91450253 -105.02180654 40.76453769 -101.0625 38.125 C-100.0725 38.125 -99.0825 38.125 -98.0625 38.125 C-97.4025 36.805 -96.7425 35.485 -96.0625 34.125 C-95.4025 34.125 -94.7425 34.125 -94.0625 34.125 C-93.7325 33.135 -93.4025 32.145 -93.0625 31.125 C-92.0725 30.795 -91.0825 30.465 -90.0625 30.125 C-89.4025 29.135 -88.7425 28.145 -88.0625 27.125 C-85.4375 26.4375 -85.4375 26.4375 -83.0625 26.125 C-83.0625 25.465 -83.0625 24.805 -83.0625 24.125 C-81.0825 23.465 -79.1025 22.805 -77.0625 22.125 C-77.0625 21.465 -77.0625 20.805 -77.0625 20.125 C-76.0725 19.795 -75.0825 19.465 -74.0625 19.125 C-73.7325 18.465 -73.4025 17.805 -73.0625 17.125 C-71.21484375 16.4921875 -71.21484375 16.4921875 -69 16 C-68.26652344 15.83242187 -67.53304687 15.66484375 -66.77734375 15.4921875 C-66.21144531 15.37101563 -65.64554687 15.24984375 -65.0625 15.125 C-65.0625 14.465 -65.0625 13.805 -65.0625 13.125 C-61.18565913 11.93212589 -58.14628077 11.125 -54.0625 11.125 C-54.0625 10.465 -54.0625 9.805 -54.0625 9.125 C-49.9428623 7.83256464 -46.39418317 6.86247375 -42.0625 7.125 C-42.0625 6.465 -42.0625 5.805 -42.0625 5.125 C-36.68222975 3.93411014 -31.60958616 2.8330481 -26.0625 3.125 C-26.0625 2.465 -26.0625 1.805 -26.0625 1.125 C-17.36376262 0.13144056 -8.74927204 -0.02615627 0 0 Z " fill="#C0A260" transform="translate(420.0625,159.875)"/>
<path d="M0 0 C9.81502877 -0.02329078 19.63005084 -0.04099969 29.44510174 -0.05181217 C34.00385714 -0.05700467 38.56259346 -0.0640354 43.12133789 -0.07543945 C47.53042091 -0.08639861 51.93948572 -0.09230411 56.34858131 -0.09487724 C58.02086485 -0.09670823 59.69314753 -0.10028301 61.3654232 -0.10573006 C70.96942027 -0.13573524 80.43226811 0.06654499 90 1 C90 1.66 90 2.32 90 3 C91.0725 2.979375 92.145 2.95875 93.25 2.9375 C96.14790424 2.9857984 98.28612141 3.13155885 101 4 C101 4.66 101 5.32 101 6 C101.763125 6.144375 102.52625 6.28875 103.3125 6.4375 C106 7 106 7 109 8 C109 8.66 109 9.32 109 10 C109.9590625 10.1546875 109.9590625 10.1546875 110.9375 10.3125 C111.618125 10.539375 112.29875 10.76625 113 11 C113.495 12.485 113.495 12.485 114 14 C116.00016466 15.20882096 116.00016466 15.20882096 118 16 C118 16.66 118 17.32 118 18 C119.485 18.495 119.485 18.495 121 19 C121.495 21.475 121.495 21.475 122 24 C122.66 24 123.32 24 124 24 C124.80954165 26.84666036 125.12828737 29.37973331 125.1328125 32.3359375 C125.13410156 33.15320313 125.13539063 33.97046875 125.13671875 34.8125 C125.13285156 35.658125 125.12898438 36.50375 125.125 37.375 C125.12886719 38.21289062 125.13273437 39.05078125 125.13671875 39.9140625 C125.12968189 44.38950693 124.90387448 48.59540529 124 53 C123.34 53 122.68 53 122 53 C121.7215625 54.794375 121.7215625 54.794375 121.4375 56.625 C120.35333235 61.12110701 118.19214831 63.06904554 114.55859375 65.7734375 C112.85496488 66.93481525 112.85496488 66.93481525 112 69 C109.37418862 70.57548683 108.12900213 71 105 71 C105 71.66 105 72.32 105 73 C101.04 73.99 101.04 73.99 97 75 C97 75.66 97 76.32 97 77 C92.05 77.99 92.05 77.99 87 79 C87 79.66 87 80.32 87 81 C88.485 81.495 88.485 81.495 90 82 C90.33 82.99 90.66 83.98 91 85 C91.495 85.474375 91.99 85.94875 92.5 86.4375 C94 88 94 88 94.4375 90.0625 C94.82450832 92.21173571 94.82450832 92.21173571 97.0625 93.25 C98.0215625 93.62125 98.0215625 93.62125 99 94 C99 94.99 99 95.98 99 97 C100.485 97.495 100.485 97.495 102 98 C102 98.66 102 99.32 102 100 C102.66 100 103.32 100 104 100 C104.268125 100.61875 104.53625 101.2375 104.8125 101.875 C105.95556848 104.2995233 105.95556848 104.2995233 109 106 C109.33 106.99 109.66 107.98 110 109 C110.495 109.474375 110.99 109.94875 111.5 110.4375 C113 112 113 112 113.4375 114.0625 C113.82450832 116.21173571 113.82450832 116.21173571 116.0625 117.25 C117.0215625 117.62125 117.0215625 117.62125 118 118 C118 118.99 118 119.98 118 121 C119.485 121.495 119.485 121.495 121 122 C121.0825 122.78375 121.165 123.5675 121.25 124.375 C121.72806339 127.14749104 121.72806339 127.14749104 124.0625 128.3125 C125.0215625 128.6528125 125.0215625 128.6528125 126 129 C126 129.66 126 130.32 126 131 C126.66 131 127.32 131 128 131 C128.4021875 131.928125 128.4021875 131.928125 128.8125 132.875 C129.95556848 135.2995233 129.95556848 135.2995233 133 137 C133 137.66 133 138.32 133 139 C133.598125 139.144375 134.19625 139.28875 134.8125 139.4375 C136.56150404 139.8872439 138.28677023 140.42892341 140 141 C140 141.66 140 142.32 140 143 C144.95 143.66 149.9 144.32 155 145 C155 145.66 155 146.32 155 147 C155.66 147 156.32 147 157 147 C157 149.64 157 152.28 157 155 C150.78868226 155.07408447 144.57762095 155.12857114 138.3659668 155.16479492 C136.25231446 155.1798936 134.13869352 155.20037426 132.02514648 155.22631836 C128.98934185 155.26265397 125.95395094 155.27971544 122.91796875 155.29296875 C121.4975251 155.31619453 121.4975251 155.31619453 120.04838562 155.33988953 C118.72735588 155.34022942 118.72735588 155.34022942 117.37963867 155.34057617 C116.60464523 155.34723801 115.82965179 155.35389984 115.03117371 155.36076355 C112.4595916 154.90401626 111.62302105 154.00144476 110 152 C108.41086442 149.32356113 108 148.1819944 108 145 C107.01 144.67 106.02 144.34 105 144 C104.67 143.01 104.34 142.02 104 141 C103.34 140.67 102.68 140.34 102 140 C101.67 139.01 101.34 138.02 101 137 C99.515 136.01 99.515 136.01 98 135 C97.67 134.01 97.34 133.02 97 132 C96.34 131.67 95.68 131.34 95 131 C94.27306096 129.02111039 93.60183749 127.02045442 93 125 C92.34 125 91.68 125 91 125 C89.5393715 122.35261084 89 121.10551666 89 118 C87.02 117.01 87.02 117.01 85 116 C85 115.01 85 114.02 85 113 C83.515 112.505 83.515 112.505 82 112 C81.3125 109.9375 81.3125 109.9375 81 108 C80.34 108 79.68 108 79 108 C75.4288115 105.09840934 74.19913678 102.39683488 73 98 C72.34 98 71.68 98 71 98 C70.731875 97.38125 70.46375 96.7625 70.1875 96.125 C69.04443152 93.7004767 69.04443152 93.7004767 66 92 C65.67 91.01 65.34 90.02 65 89 C64.01 88.505 64.01 88.505 63 88 C63 87.34 63 86.68 63 86 C57.39 86 51.78 86 46 86 C46.11854624 92.99270364 46.24281462 99.98527382 46.37231445 106.9777832 C46.41554308 109.35503396 46.45722636 111.73231335 46.49731445 114.10961914 C46.55531024 117.5328025 46.61891954 120.95584334 46.68359375 124.37890625 C46.70030624 125.43646622 46.71701874 126.49402618 46.73423767 127.58363342 C46.7641555 129.08439674 46.7641555 129.08439674 46.79467773 130.61547852 C46.81799416 131.92452904 46.81799416 131.92452904 46.84178162 133.26002502 C47.03026503 136.52412007 47.53761829 139.763328 48 143 C54.27 143.66 60.54 144.32 67 145 C67 145.66 67 146.32 67 147 C67.66 147 68.32 147 69 147 C69 149.64 69 152.28 69 155 C46.23 155 23.46 155 0 155 C0 147 0 147 1 145 C3.51171875 144.62109375 3.51171875 144.62109375 6.6875 144.4375 C10.85233309 144.15951352 14.89566952 143.79806426 19 143 C19.495 140.03 19.495 140.03 20 137 C20.66 137 21.32 137 22 137 C22 97.73 22 58.46 22 18 C21.34 18 20.68 18 20 18 C19.67 17.01 19.34 16.02 19 15 C18.01 14.67 17.02 14.34 16 14 C16 13.34 16 12.68 16 12 C10.72 11.34 5.44 10.68 0 10 C0 6.7 0 3.4 0 0 Z M46 11 C46 32.12 46 53.24 46 75 C61.85707525 75.34871881 61.85707525 75.34871881 77 73 C77 72.34 77 71.68 77 71 C78.98 70.34 80.96 69.68 83 69 C83 68.34 83 67.68 83 67 C83.94875 66.79375 84.8975 66.5875 85.875 66.375 C89.29166667 65.29166667 89.29166667 65.29166667 90.375 61.875 C90.58125 60.92625 90.7875 59.9775 91 59 C91.66 59 92.32 59 93 59 C94.59138085 54.82262526 95.21278058 51.46839215 95 47 C95.66 47 96.32 47 97 47 C97 42.71 97 38.42 97 34 C96.34 34 95.68 34 95 34 C95.04125 33.113125 95.0825 32.22625 95.125 31.3125 C94.99443868 27.85262493 94.69311324 26.00142801 93 23 C91.04072937 21.2856382 89.04119788 19.61594832 87 18 C86.34 17.01 85.68 16.02 85 15 C81.93443402 14.26656572 81.93443402 14.26656572 79 14 C79 13.34 79 12.68 79 12 C68.20866128 9.84173226 57.00504935 11 46 11 Z " fill="#1C1615" transform="translate(26,465)"/>
<path d="M0 0 C0 0.66 0 1.32 0 2 C0.598125 2.144375 1.19625 2.28875 1.8125 2.4375 C3.56150404 2.8872439 5.28677023 3.42892341 7 4 C7.6875 6.0625 7.6875 6.0625 8 8 C8.66 8 9.32 8 10 8 C11.4606285 10.64738916 12 11.89448334 12 15 C12.66 15 13.32 15 14 15 C16.3411425 23.29930964 16.256861 31.4248518 16.1953125 39.97265625 C16.19157565 41.50678827 16.18873186 43.04092271 16.18673706 44.57505798 C16.17915342 48.58469398 16.15955115 52.59418175 16.1373291 56.60375977 C16.11675622 60.70652258 16.10771103 64.80930968 16.09765625 68.91210938 C16.0762995 76.94147376 16.04222838 84.97071837 16 93 C16.66 93 17.32 93 18 93 C18 93.99 18 94.98 18 96 C20.97 96.66 23.94 97.32 27 98 C27 98.66 27 99.32 27 100 C28.98 100 30.96 100 33 100 C33 102.64 33 105.28 33 108 C14.52 108 -3.96 108 -23 108 C-23 105.36 -23 102.72 -23 100 C-20.03 100 -17.06 100 -14 100 C-14 99.34 -14 98.68 -14 98 C-10.04 97.01 -10.04 97.01 -6 96 C-6 72.24 -6 48.48 -6 24 C-6.66 24 -7.32 24 -8 24 C-8.2475 23.2575 -8.495 22.515 -8.75 21.75 C-10.11291363 18.75159001 -11.50095178 17.12040455 -14 15 C-15.485 14.505 -15.485 14.505 -17 14 C-17 13.34 -17 12.68 -17 12 C-22.94 12 -28.88 12 -35 12 C-35 12.66 -35 13.32 -35 14 C-37.90600261 15.25664978 -39.79604584 16 -43 16 C-43 16.66 -43 17.32 -43 18 C-43.5775 18.2475 -44.155 18.495 -44.75 18.75 C-48.48597363 20.82554091 -50.64391315 22.93173944 -52 27 C-52.09400636 29.00778478 -52.12793338 31.01858067 -52.12939453 33.02856445 C-52.13412277 34.8911364 -52.13412277 34.8911364 -52.13894653 36.79133606 C-52.13715604 38.14865148 -52.13510492 39.50596658 -52.1328125 40.86328125 C-52.13348635 42.25709551 -52.13445706 43.65090965 -52.13571167 45.04472351 C-52.13718628 47.96757118 -52.13504266 50.8903883 -52.13037109 53.81323242 C-52.12468981 57.54888262 -52.12794412 61.28446071 -52.13394356 65.02010822 C-52.13756912 67.90010616 -52.13640116 70.78008721 -52.13381577 73.66008568 C-52.13315119 75.03671464 -52.13395845 76.41334516 -52.13629532 77.78997231 C-52.13885282 79.7210652 -52.13425965 81.6521635 -52.12939453 83.58325195 C-52.12859894 84.6800679 -52.12780334 85.77688385 -52.12698364 86.90693665 C-51.99942485 90.01400951 -51.57780039 92.9472718 -51 96 C-47.7 96.66 -44.4 97.32 -41 98 C-41 98.66 -41 99.32 -41 100 C-39.35 100 -37.7 100 -36 100 C-36 102.64 -36 105.28 -36 108 C-54.15 108 -72.3 108 -91 108 C-91 105.36 -91 102.72 -91 100 C-88.69 100 -86.38 100 -84 100 C-84 99.34 -84 98.68 -84 98 C-80.04 97.01 -80.04 97.01 -76 96 C-76 69.6 -76 43.2 -76 16 C-77.32 15.34 -78.64 14.68 -80 14 C-80 13.34 -80 12.68 -80 12 C-85.94 11.01 -85.94 11.01 -92 10 C-92 7.36 -92 4.72 -92 2 C-88.7 2 -85.4 2 -82 2 C-82 1.34 -82 0.68 -82 0 C-77.5420032 -0.19616609 -73.08359465 -0.38047068 -68.625 -0.5625 C-67.35398437 -0.61857422 -66.08296875 -0.67464844 -64.7734375 -0.73242188 C-63.56171875 -0.78076172 -62.35 -0.82910156 -61.1015625 -0.87890625 C-59.98088379 -0.9260376 -58.86020508 -0.97316895 -57.70556641 -1.02172852 C-55 -1 -55 -1 -53 0 C-52.5859375 3.16015625 -52.5859375 3.16015625 -52.375 7.0625 C-52.30023437 8.35285156 -52.22546875 9.64320313 -52.1484375 10.97265625 C-52.09945312 11.97167969 -52.05046875 12.97070312 -52 14 C-51.01 14 -50.02 14 -49 14 C-48.34 12.68 -47.68 11.36 -47 10 C-46.34 10 -45.68 10 -45 10 C-44.34 8.68 -43.68 7.36 -43 6 C-42.01 6 -41.02 6 -40 6 C-39.67 5.01 -39.34 4.02 -39 3 C-37.02 2.67 -35.04 2.34 -33 2 C-33 1.34 -33 0.68 -33 0 C-22.48966253 -3.00295356 -10.45185447 -3.48395149 0 0 Z " fill="#1C1615" transform="translate(636,512)"/>
<path d="M0 0 C0 0.66 0 1.32 0 2 C0.598125 2.144375 1.19625 2.28875 1.8125 2.4375 C6.03778134 3.52400092 8.11072885 4.7254927 11 8 C11.495 9.485 11.495 9.485 12 11 C12.99 11.495 12.99 11.495 14 12 C16.02996747 17.4132466 16.23433319 22.25883676 16 28 C16.66 28 17.32 28 18 28 C18 35.26 18 42.52 18 50 C17.34 50 16.68 50 16 50 C16 63.2 16 76.4 16 90 C16.66 90 17.32 90 18 90 C18.66 91.98 19.32 93.96 20 96 C24.95 96.66 29.9 97.32 35 98 C35 100.64 35 103.28 35 106 C34.01 106 33.02 106 32 106 C32 106.66 32 107.32 32 108 C22.1910346 110.33745558 13.72347963 110.881031 4 108 C4 107.34 4 106.68 4 106 C2.35 105.34 0.7 104.68 -1 104 C-1 103.01 -1 102.02 -1 101 C-1.66 101 -2.32 101 -3 101 C-3.66 99.35 -4.32 97.7 -5 96 C-5.47050781 96.433125 -5.94101562 96.86625 -6.42578125 97.3125 C-7.04839844 97.869375 -7.67101562 98.42625 -8.3125 99 C-8.92738281 99.556875 -9.54226563 100.11375 -10.17578125 100.6875 C-12 102 -12 102 -15 102 C-15.495 103.485 -15.495 103.485 -16 105 C-18.475 105.495 -18.475 105.495 -21 106 C-21 106.66 -21 107.32 -21 108 C-27.19780556 109.70553863 -33.22975113 110.21642547 -39.625 110.25 C-40.32874756 110.25902344 -41.03249512 110.26804687 -41.75756836 110.27734375 C-46.79056686 110.24917727 -51.15751838 109.37112963 -56 108 C-56 107.34 -56 106.68 -56 106 C-56.53625 105.938125 -57.0725 105.87625 -57.625 105.8125 C-61.05209247 104.64007363 -63.59086304 102.65005066 -66 100 C-67.65495754 96.31395822 -68 94.07178945 -68 90 C-68.66 90 -69.32 90 -70 90 C-70 85.71 -70 81.42 -70 77 C-69.34 77 -68.68 77 -68 77 C-68.061875 75.6696875 -68.061875 75.6696875 -68.125 74.3125 C-67.97359693 70.3003186 -67.58135062 67.49086462 -64.56640625 64.6484375 C-63.05994815 63.4129251 -61.53085997 62.20514508 -60 61 C-59.67 60.34 -59.34 59.68 -59 59 C-56.37418862 57.42451317 -55.12900213 57 -52 57 C-52 56.34 -52 55.68 -52 55 C-48.17679443 53.57741188 -45.08718695 52.75957724 -41 53 C-41 52.34 -41 51.68 -41 51 C-39.14375 50.505 -39.14375 50.505 -37.25 50 C-36.20585937 49.7215625 -36.20585937 49.7215625 -35.140625 49.4375 C-33 49 -33 49 -29 49 C-29 48.34 -29 47.68 -29 47 C-27.7625 46.67 -26.525 46.34 -25.25 46 C-24.20585937 45.7215625 -24.20585937 45.7215625 -23.140625 45.4375 C-21 45 -21 45 -17 45 C-17 44.34 -17 43.68 -17 43 C-13.38026598 41.68373308 -10.90432869 41 -7 41 C-7 40.34 -7 39.68 -7 39 C-6.34 39 -5.68 39 -5 39 C-5 33.39 -5 27.78 -5 22 C-5.66 22 -6.32 22 -7 22 C-7.20625 20.948125 -7.4125 19.89625 -7.625 18.8125 C-8.8537607 14.34920744 -11.39725842 12.74121642 -15 10 C-15 9.34 -15 8.68 -15 8 C-22.26 8 -29.52 8 -37 8 C-37 8.66 -37 9.32 -37 10 C-37.99 10.33 -38.98 10.66 -40 11 C-39.90460938 12.09699219 -39.80921875 13.19398438 -39.7109375 14.32421875 C-39.59834039 15.77859812 -39.48639558 17.2330281 -39.375 18.6875 C-39.31054688 19.40873047 -39.24609375 20.12996094 -39.1796875 20.87304688 C-38.86897658 25.12590254 -39.02979912 28.18743571 -41 32 C-41.99 32 -42.98 32 -44 32 C-44 32.66 -44 33.32 -44 34 C-46.88415883 35.44207941 -49.41721528 35.09394887 -52.625 35.0625 C-53.81351562 35.05347656 -55.00203125 35.04445313 -56.2265625 35.03515625 C-57.14179688 35.02355469 -58.05703125 35.01195312 -59 35 C-59.495 33.515 -59.495 33.515 -60 32 C-60.99 31.67 -61.98 31.34 -63 31 C-65.01764216 26.41444964 -64.54692578 20.64077735 -63 16 C-62.67 15.34 -62.34 14.68 -62 14 C-61.34 14 -60.68 14 -60 14 C-59.34 12.68 -58.68 11.36 -58 10 C-57.34 10 -56.68 10 -56 10 C-55.34 8.68 -54.68 7.36 -54 6 C-53.01 6 -52.02 6 -51 6 C-51 5.34 -51 4.68 -51 4 C-48.09399739 2.74335022 -46.20395416 2 -43 2 C-43 1.34 -43 0.68 -43 0 C-29.25365565 -3.53117102 -13.77970617 -3.13684368 0 0 Z M-13 51 C-13 51.66 -13 52.32 -13 53 C-14.2375 53.144375 -15.475 53.28875 -16.75 53.4375 C-19.56504499 53.78688502 -22.2701497 54.20379366 -25 55 C-25 55.66 -25 56.32 -25 57 C-26.423125 57.2165625 -26.423125 57.2165625 -27.875 57.4375 C-30.8934494 57.82935399 -30.8934494 57.82935399 -33 59 C-33 59.66 -33 60.32 -33 61 C-33.9075 61.2475 -34.815 61.495 -35.75 61.75 C-39.21512044 63.08273863 -40.78603464 64.04804619 -43 67 C-43.80315654 70.14481791 -43.80315654 70.14481791 -44 73 C-44.66 73 -45.32 73 -46 73 C-46.19672365 74.72814161 -46.38196799 76.45759197 -46.5625 78.1875 C-46.66691406 79.15042969 -46.77132813 80.11335937 -46.87890625 81.10546875 C-46.99758751 83.94233377 -46.67765639 86.25423671 -46 89 C-45.34 89 -44.68 89 -44 89 C-43.67 90.32 -43.34 91.64 -43 93 C-41.68 93.33 -40.36 93.66 -39 94 C-39 94.66 -39 95.32 -39 96 C-35.29553447 97.23482184 -31.8556992 97.14558202 -28 97.125 C-26.91332031 97.13080078 -26.91332031 97.13080078 -25.8046875 97.13671875 C-22.60717121 97.13081927 -20.05417393 97.01805798 -17 96 C-17 95.34 -17 94.68 -17 94 C-15.02 93.34 -13.04 92.68 -11 92 C-11 91.34 -11 90.68 -11 90 C-9.68 89.34 -8.36 88.68 -7 88 C-7 87.34 -7 86.68 -7 86 C-6.34 86 -5.68 86 -5 86 C-5 74.12 -5 62.24 -5 50 C-8.11257569 50 -10.10765685 50.17361624 -13 51 Z " fill="#1C1615" transform="translate(499,512)"/>
<path d="M0 0 C0 0.66 0 1.32 0 2 C0.94875 2.144375 1.8975 2.28875 2.875 2.4375 C6 3 6 3 8 4 C8 4.66 8 5.32 8 6 C9.32 6.66 10.64 7.32 12 8 C12 8.66 12 9.32 12 10 C13.32 10.66 14.64 11.32 16 12 C16 12.66 16 13.32 16 14 C16.66 14 17.32 14 18 14 C19.76462683 17.08809695 20 18.23312136 20 22 C20.66 22 21.32 22 22 22 C23.59162079 27.57067277 24.20674944 32.21101581 24 38 C24.66 38 25.32 38 26 38 C26 42.29 26 46.58 26 51 C1.58 51 -22.84 51 -48 51 C-47.67 57.27 -47.34 63.54 -47 70 C-46.34 70 -45.68 70 -45 70 C-44.34 73.63 -43.68 77.26 -43 81 C-41.515 81.495 -41.515 81.495 -40 82 C-39.67 82.99 -39.34 83.98 -39 85 C-37.02043058 86.69088222 -35.02054804 88.35830472 -33 90 C-32.67 90.66 -32.34 91.32 -32 92 C-30.35636866 92.72159424 -28.68949614 93.39351421 -27 94 C-27 94.66 -27 95.32 -27 96 C-16.83562705 96.85803148 -7.17617858 97.03351814 3 96 C3.495 94.515 3.495 94.515 4 93 C4.99 92.67 5.98 92.34 7 92 C8.68732277 90.01739574 10.35366057 88.0167658 12 86 C12.99 85.34 13.98 84.68 15 84 C15.495 82.515 15.495 82.515 16 81 C16.66 80.67 17.32 80.34 18 80 C18.99 78.515 18.99 78.515 20 77 C21.485 77.495 21.485 77.495 23 78 C23 78.66 23 79.32 23 80 C24.98 80.495 24.98 80.495 27 81 C27 85 27 85 26 88 C25.01 88.495 25.01 88.495 24 89 C23.62875 89.86625 23.62875 89.86625 23.25 90.75 C21.47579592 93.94356734 18.81422213 95.71344452 16 98 C15.34 98.99 14.68 99.98 14 101 C12.515 101.495 12.515 101.495 11 102 C10.67 102.66 10.34 103.32 10 104 C8.15234375 104.6328125 8.15234375 104.6328125 5.9375 105.125 C5.20402344 105.29257812 4.47054687 105.46015625 3.71484375 105.6328125 C3.14894531 105.75398437 2.58304687 105.87515625 2 106 C2 106.66 2 107.32 2 108 C-4.88477072 109.62124948 -11.37118608 110.32298969 -18.4375 110.25 C-19.35039795 110.24613281 -20.2632959 110.24226562 -21.20385742 110.23828125 C-27.61845058 110.1560209 -33.77178079 109.63363127 -40 108 C-40 107.34 -40 106.68 -40 106 C-41.1446875 105.7834375 -41.1446875 105.7834375 -42.3125 105.5625 C-45 105 -45 105 -48 104 C-48 103.34 -48 102.68 -48 102 C-49.299375 101.7215625 -49.299375 101.7215625 -50.625 101.4375 C-54.9289619 99.60433104 -57.51739347 96.9528026 -60 93 C-60 92.01 -60 91.02 -60 90 C-60.99 89.67 -61.98 89.34 -63 89 C-63.495 86.525 -63.495 86.525 -64 84 C-64.66 84 -65.32 84 -66 84 C-67.42258812 80.17679443 -68.24042276 77.08718695 -68 73 C-68.66 73 -69.32 73 -70 73 C-70.76382268 68.92830176 -71.1282321 65.07818429 -71.1328125 60.9375 C-71.13410156 59.81085937 -71.13539063 58.68421875 -71.13671875 57.5234375 C-71.13285156 56.36070312 -71.12898437 55.19796875 -71.125 54 C-71.13080078 52.25589844 -71.13080078 52.25589844 -71.13671875 50.4765625 C-71.13542969 49.34992187 -71.13414062 48.22328125 -71.1328125 47.0625 C-71.13168457 46.04285156 -71.13055664 45.02320313 -71.12939453 43.97265625 C-70.99612764 40.91103808 -70.56456067 38.00949521 -70 35 C-69.34 35 -68.68 35 -68 35 C-67.855625 33.88625 -67.71125 32.7725 -67.5625 31.625 C-67 28 -67 28 -66 26 C-65.34 26 -64.68 26 -64 26 C-63.67 24.02 -63.34 22.04 -63 20 C-62.01 19.67 -61.02 19.34 -60 19 C-59.835 18.34 -59.67 17.68 -59.5 17 C-59.335 16.34 -59.17 15.68 -59 15 C-58.01 14.67 -57.02 14.34 -56 14 C-54.79117904 11.99983534 -54.79117904 11.99983534 -54 10 C-53.34 10 -52.68 10 -52 10 C-51.67 9.01 -51.34 8.02 -51 7 C-50.01 6.67 -49.02 6.34 -48 6 C-47.67 5.34 -47.34 4.68 -47 4 C-45.15234375 3.3671875 -45.15234375 3.3671875 -42.9375 2.875 C-42.20402344 2.70742188 -41.47054687 2.53984375 -40.71484375 2.3671875 C-40.14894531 2.24601563 -39.58304688 2.12484375 -39 2 C-39 1.34 -39 0.68 -39 0 C-26.56431312 -3.49948978 -12.4747931 -3.077482 0 0 Z M-31 8 C-31 8.66 -31 9.32 -31 10 C-32.98 10.66 -34.96 11.32 -37 12 C-37 12.66 -37 13.32 -37 14 C-37.99 14.33 -38.98 14.66 -40 15 C-40.33 15.99 -40.66 16.98 -41 18 C-41.99 18.495 -41.99 18.495 -43 19 C-44.62734766 22.34510352 -45 24.18835834 -45 28 C-45.66 28 -46.32 28 -47 28 C-47.33 32.29 -47.66 36.58 -48 41 C-31.17 41 -14.34 41 3 41 C2.67 36.38 2.34 31.76 2 27 C1.34 27 0.68 27 0 27 C-0.22786458 25.01432292 -0.45572917 23.02864583 -0.68359375 21.04296875 C-0.97170735 18.80603607 -0.97170735 18.80603607 -2 16 C-2.66 16 -3.32 16 -4 16 C-4.1546875 15.071875 -4.1546875 15.071875 -4.3125 14.125 C-4.87525373 11.63473516 -4.87525373 11.63473516 -8 10 C-8.99 10 -9.98 10 -11 10 C-11 9.34 -11 8.68 -11 8 C-13.94361219 6.5281939 -16.60048202 6.86819227 -19.875 6.875 C-21.10992187 6.87242187 -22.34484375 6.86984375 -23.6171875 6.8671875 C-26.30774489 6.97282139 -28.45629184 7.19470546 -31 8 Z " fill="#1C1615" transform="translate(257,512)"/>
<path d="M0 0 C1.25731934 -0.01353516 1.25731934 -0.01353516 2.54003906 -0.02734375 C8.23894043 -0.00057787 13.43124042 0.79228979 18.9375 2.25 C18.9375 2.91 18.9375 3.57 18.9375 4.25 C19.700625 4.394375 20.46375 4.53875 21.25 4.6875 C23.9375 5.25 23.9375 5.25 26.9375 6.25 C26.9375 6.91 26.9375 7.57 26.9375 8.25 C27.88625 8.45625 28.835 8.6625 29.8125 8.875 C30.84375 9.32875 31.875 9.7825 32.9375 10.25 C34.125 13.3125 34.125 13.3125 34.9375 16.25 C36.4225 16.745 36.4225 16.745 37.9375 17.25 C38.4325 19.725 38.4325 19.725 38.9375 22.25 C39.5975 22.25 40.2575 22.25 40.9375 22.25 C42.27333899 27.09241633 43.19078119 31.18437617 42.9375 36.25 C43.5975 36.25 44.2575 36.25 44.9375 36.25 C44.9375 41.86 44.9375 47.47 44.9375 53.25 C20.5175 53.25 -3.9025 53.25 -29.0625 53.25 C-28.4025 59.19 -27.7425 65.13 -27.0625 71.25 C-27.0625 72.9 -27.0625 74.55 -27.0625 76.25 C-26.4025 76.25 -25.7425 76.25 -25.0625 76.25 C-24.4025 78.89 -23.7425 81.53 -23.0625 84.25 C-22.4025 84.25 -21.7425 84.25 -21.0625 84.25 C-20.815 85.19875 -20.5675 86.1475 -20.3125 87.125 C-19.3767923 90.33693191 -19.3767923 90.33693191 -16.9375 91.625 C-16.31875 91.83125 -15.7 92.0375 -15.0625 92.25 C-15.0625 92.91 -15.0625 93.57 -15.0625 94.25 C-13.886875 94.4665625 -13.886875 94.4665625 -12.6875 94.6875 C-10.0625 95.25 -10.0625 95.25 -8.0625 96.25 C-8.0625 96.91 -8.0625 97.57 -8.0625 98.25 C2.10187295 99.10803148 11.76132142 99.28351814 21.9375 98.25 C21.9375 97.59 21.9375 96.93 21.9375 96.25 C24.58488916 94.7893715 25.83198334 94.25 28.9375 94.25 C29.9275 92.27 29.9275 92.27 30.9375 90.25 C31.5975 90.25 32.2575 90.25 32.9375 90.25 C33.081875 89.63125 33.22625 89.0125 33.375 88.375 C33.9375 86.25 33.9375 86.25 34.9375 84.25 C35.5975 84.25 36.2575 84.25 36.9375 84.25 C37.4325 82.27 37.4325 82.27 37.9375 80.25 C39.2575 80.25 40.5775 80.25 41.9375 80.25 C41.9375 80.91 41.9375 81.57 41.9375 82.25 C43.5875 82.58 45.2375 82.91 46.9375 83.25 C46.0625 88 46.0625 88 44.9375 90.25 C44.2775 90.25 43.6175 90.25 42.9375 90.25 C42.73125 90.971875 42.525 91.69375 42.3125 92.4375 C40.52935287 96.08484641 38.1183526 97.76893497 34.9375 100.25 C34.195 101.013125 33.4525 101.77625 32.6875 102.5625 C30.9375 104.25 30.9375 104.25 28.9375 104.25 C28.9375 104.91 28.9375 105.57 28.9375 106.25 C24.4825 107.24 24.4825 107.24 19.9375 108.25 C19.9375 108.91 19.9375 109.57 19.9375 110.25 C13.53071143 112.14942438 7.72566816 112.55499176 1.0625 112.5 C-0.33162109 112.51160156 -0.33162109 112.51160156 -1.75390625 112.5234375 C-8.07187204 112.50581416 -13.91993461 111.71593433 -20.0625 110.25 C-20.0625 109.59 -20.0625 108.93 -20.0625 108.25 C-23.5275 107.755 -23.5275 107.755 -27.0625 107.25 C-27.3925 106.26 -27.7225 105.27 -28.0625 104.25 C-29.95429203 103.5685177 -29.95429203 103.5685177 -32.0625 103.25 C-36.13103343 101.89382219 -37.53100875 99.64752774 -40.0625 96.25 C-40.875 93.875 -40.875 93.875 -41.0625 92.25 C-41.7225 92.25 -42.3825 92.25 -43.0625 92.25 C-44.0525 89.28 -44.0525 89.28 -45.0625 86.25 C-45.7225 86.25 -46.3825 86.25 -47.0625 86.25 C-48.51434478 81.71298506 -49.29759196 78.06938524 -49.0625 73.25 C-49.7225 73.25 -50.3825 73.25 -51.0625 73.25 C-52.26327018 67.59875623 -52.21047206 62.05934357 -52.1875 56.3125 C-52.19136719 55.34892578 -52.19523438 54.38535156 -52.19921875 53.39257812 C-52.19217015 48.23652624 -51.95279547 43.33033682 -51.0625 38.25 C-50.4025 38.25 -49.7425 38.25 -49.0625 38.25 C-48.918125 36.97125 -48.77375 35.6925 -48.625 34.375 C-48.35607254 31.99307106 -48.14023654 30.40547309 -47.0625 28.25 C-46.4025 28.25 -45.7425 28.25 -45.0625 28.25 C-44.8459375 27.3528125 -44.8459375 27.3528125 -44.625 26.4375 C-44.1752561 24.68849596 -43.63357659 22.96322977 -43.0625 21.25 C-42.4025 20.92 -41.7425 20.59 -41.0625 20.25 C-39.92899466 18.23330173 -39.92899466 18.23330173 -39.0625 16.25 C-38.4025 16.25 -37.7425 16.25 -37.0625 16.25 C-36.4025 14.93 -35.7425 13.61 -35.0625 12.25 C-34.4025 12.25 -33.7425 12.25 -33.0625 12.25 C-32.7325 11.26 -32.4025 10.27 -32.0625 9.25 C-31.0725 8.92 -30.0825 8.59 -29.0625 8.25 C-28.7325 7.59 -28.4025 6.93 -28.0625 6.25 C-25.15990189 4.8750851 -23.30111295 4.25 -20.0625 4.25 C-20.0625 3.59 -20.0625 2.93 -20.0625 2.25 C-13.32864679 0.45430581 -6.93206967 0.03070684 0 0 Z M-12.0625 10.25 C-12.0625 10.91 -12.0625 11.57 -12.0625 12.25 C-13.0215625 12.4046875 -13.0215625 12.4046875 -14 12.5625 C-14.680625 12.789375 -15.36125 13.01625 -16.0625 13.25 C-16.3925 14.24 -16.7225 15.23 -17.0625 16.25 C-19.125 17.4375 -19.125 17.4375 -21.0625 18.25 C-21.0625 18.91 -21.0625 19.57 -21.0625 20.25 C-22.0525 20.58 -23.0425 20.91 -24.0625 21.25 C-24.3925 23.56 -24.7225 25.87 -25.0625 28.25 C-25.7225 28.25 -26.3825 28.25 -27.0625 28.25 C-27.40201619 29.81116819 -27.73382544 31.37401338 -28.0625 32.9375 C-28.248125 33.80761719 -28.43375 34.67773438 -28.625 35.57421875 C-29.19696751 38.62052758 -29.19696751 38.62052758 -29.0625 43.25 C-12.2325 43.25 4.5975 43.25 21.9375 43.25 C21.9375 40.28 21.9375 37.31 21.9375 34.25 C21.2775 34.25 20.6175 34.25 19.9375 34.25 C19.87691406 33.40695312 19.81632813 32.56390625 19.75390625 31.6953125 C19.67011719 30.59960938 19.58632813 29.50390625 19.5 28.375 C19.41878906 27.28445313 19.33757812 26.19390625 19.25390625 25.0703125 C19.10748297 22.30271029 19.10748297 22.30271029 17.9375 20.25 C17.2775 20.25 16.6175 20.25 15.9375 20.25 C15.855 19.6725 15.7725 19.095 15.6875 18.5 C14.711518 15.57205399 13.30238777 14.19755463 10.9375 12.25 C9.9475 12.25 8.9575 12.25 7.9375 12.25 C7.9375 11.59 7.9375 10.93 7.9375 10.25 C4.99388781 8.7781939 2.33701798 9.11819227 -0.9375 9.125 C-2.17242188 9.12242187 -3.40734375 9.11984375 -4.6796875 9.1171875 C-7.37024489 9.22282139 -9.51879184 9.44470546 -12.0625 10.25 Z " fill="#1C1615" transform="translate(839.0625,509.75)"/>
<path d="M0 0 C0 0.66 0 1.32 0 2 C1.98 2.66 3.96 3.32 6 4 C6 4.66 6 5.32 6 6 C6.94875 6.2475 7.8975 6.495 8.875 6.75 C12 8 12 8 13.375 9.9375 C14 12 14 12 14 15 C14.66 15 15.32 15 16 15 C17.02345486 18.37902556 17.1338035 21.47860013 17.125 25 C17.12886719 26.546875 17.12886719 26.546875 17.1328125 28.125 C16.95089757 32.06292322 16.66752121 34.19897455 14.125 37.25 C12 39 12 39 9 39 C9 39.66 9 40.32 9 41 C6.36 41 3.72 41 1 41 C1 40.34 1 39.68 1 39 C-0.65 38.67 -2.3 38.34 -4 38 C-4 37.34 -4 36.68 -4 36 C-5.32 35.34 -6.64 34.68 -8 34 C-8.09579384 25.92138585 -8.12513633 18.01659634 -7 10 C-7.99 10 -8.98 10 -10 10 C-10 9.34 -10 8.68 -10 8 C-16.93 8 -23.86 8 -31 8 C-31 8.66 -31 9.32 -31 10 C-31.94875 10.2475 -32.8975 10.495 -33.875 10.75 C-37.08693191 11.6857077 -37.08693191 11.6857077 -38.375 14.125 C-38.58125 14.74375 -38.7875 15.3625 -39 16 C-39.66 16 -40.32 16 -41 16 C-41.144375 16.5775 -41.28875 17.155 -41.4375 17.75 C-41.95833333 19.83333333 -42.47916667 21.91666667 -43 24 C-43.66 24 -44.32 24 -45 24 C-45.66 27.96 -46.32 31.92 -47 36 C-47.66 36 -48.32 36 -49 36 C-49 45.9 -49 55.8 -49 66 C-48.34 66 -47.68 66 -47 66 C-46.34 69.96 -45.68 73.92 -45 78 C-44.34 78 -43.68 78 -43 78 C-42.71125 78.969375 -42.4225 79.93875 -42.125 80.9375 C-41.35785318 84.10664203 -41.35785318 84.10664203 -39 85 C-38.33333333 86.33333333 -37.66666667 87.66666667 -37 89 C-36.01 89.495 -36.01 89.495 -35 90 C-35 90.66 -35 91.32 -35 92 C-32.03 92.99 -32.03 92.99 -29 94 C-29 94.66 -29 95.32 -29 96 C-19.84755626 96.89191731 -11.14606357 96.98753178 -2 96 C-2 95.34 -2 94.68 -2 94 C0.64738916 92.5393715 1.89448334 92 5 92 C5.495 90.515 5.495 90.515 6 89 C7.9375 86.8125 7.9375 86.8125 10 85 C10.66 85 11.32 85 12 85 C12.2165625 84.1028125 12.2165625 84.1028125 12.4375 83.1875 C12.8872439 81.43849596 13.42892341 79.71322977 14 78 C15.32 78 16.64 78 18 78 C18 78.66 18 79.32 18 80 C18.61875 80.144375 19.2375 80.28875 19.875 80.4375 C22 81 22 81 24 82 C24 82.66 24 83.32 24 84 C23.34 84 22.68 84 22 84 C21.34 85.98 20.68 87.96 20 90 C19.34 90 18.68 90 18 90 C17.01 91.98 17.01 91.98 16 94 C15.34 94 14.68 94 14 94 C13.01 95.98 13.01 95.98 12 98 C11.34 98 10.68 98 10 98 C10 98.66 10 99.32 10 100 C8.02 100.66 6.04 101.32 4 102 C4 102.66 4 103.32 4 104 C1.35261084 105.4606285 0.10551666 106 -3 106 C-3 106.66 -3 107.32 -3 108 C-15.69653774 111.3857434 -30.30346226 111.3857434 -43 108 C-43 107.34 -43 106.68 -43 106 C-44.98 105.67 -46.96 105.34 -49 105 C-49.33 104.01 -49.66 103.02 -50 102 C-50.8353125 101.814375 -50.8353125 101.814375 -51.6875 101.625 C-56.88860291 100.21929651 -62.48930297 94.4926501 -65.25 89.9375 C-66 88 -66 88 -66 85 C-66.66 85 -67.32 85 -68 85 C-69.19287411 81.12315913 -70 78.08378077 -70 74 C-70.66 74 -71.32 74 -72 74 C-73.18197684 67.48036583 -73.14810559 61.04954877 -73.125 54.4375 C-73.12886719 53.32697266 -73.13273438 52.21644531 -73.13671875 51.07226562 C-73.13542969 49.99525391 -73.13414062 48.91824219 -73.1328125 47.80859375 C-73.13168457 46.83720459 -73.13055664 45.86581543 -73.12939453 44.86499023 C-72.99292486 41.84334563 -72.55401149 38.97114105 -72 36 C-71.34 36 -70.68 36 -70 36 C-69.855625 34.72125 -69.71125 33.4425 -69.5625 32.125 C-69.29357254 29.74307106 -69.07773654 28.15547309 -68 26 C-67.34 26 -66.68 26 -66 26 C-65.690625 24.4221875 -65.690625 24.4221875 -65.375 22.8125 C-64.3457546 19.17729284 -62.65428292 17.51006282 -59.57421875 15.2578125 C-57.89953477 13.91972753 -56.7789284 12.52601572 -55.5 10.8125 C-52.75854525 7.7283634 -50.96206979 6.92141158 -47 6 C-47 5.34 -47 4.68 -47 4 C-44.09399739 2.74335022 -42.20395416 2 -39 2 C-39 1.34 -39 0.68 -39 0 C-26.47358156 -3.28561795 -12.52641844 -3.28561795 0 0 Z " fill="#1C1615" transform="translate(755,512)"/>
<path d="M0 0 C8.91 0 17.82 0 27 0 C28.31035128 2.62070256 28.12291863 4.54367431 28.12025452 7.47952271 C28.12162918 8.64342529 28.12300385 9.80732788 28.12442017 11.00650024 C28.11902725 12.93131729 28.11902725 12.93131729 28.11352539 14.89501953 C28.11324343 16.25490314 28.11340143 17.61478689 28.1139679 18.97467041 C28.11425552 22.6727944 28.10836435 26.37088615 28.10139394 30.06900263 C28.09515468 33.9314066 28.09455615 37.79381125 28.09336853 41.65621948 C28.09025691 48.97309887 28.08204579 56.28996337 28.07201904 63.6068362 C28.06085267 71.9356217 28.05534613 80.2644079 28.05032361 88.59319901 C28.03986304 105.72880797 28.02226686 122.86440241 28 140 C28.66 140 29.32 140 30 140 C30.33 140.66 30.66 141.32 31 142 C33.3140622 142.73075648 35.64828869 143.40138258 38 144 C38 144.66 38 145.32 38 146 C40.31 146 42.62 146 45 146 C45 148.64 45 151.28 45 154 C27.18 154 9.36 154 -9 154 C-9 151.36 -9 148.72 -9 146 C-6.36 146 -3.72 146 -1 146 C-1 145.34 -1 144.68 -1 144 C2.465 143.01 2.465 143.01 6 142 C6 101.41 6 60.82 6 19 C5.34 19 4.68 19 4 19 C3.67 16.36 3.34 13.72 3 11 C-2.28 10.67 -7.56 10.34 -13 10 C-13 7.36 -13 4.72 -13 2 C-8.71 2 -4.42 2 0 2 C0 1.34 0 0.68 0 0 Z " fill="#1C1615" transform="translate(304,466)"/>
<path d="M0 0 C0.33 4.29 0.66 8.58 1 13 C1.66 13 2.32 13 3 13 C3.66 16.63 4.32 20.26 5 24 C5.66 24 6.32 24 7 24 C7.66 27.3 8.32 30.6 9 34 C9.66 34 10.32 34 11 34 C11.66 36.97 12.32 39.94 13 43 C13.66 43 14.32 43 15 43 C15.66 45.97 16.32 48.94 17 52 C17.66 52 18.32 52 19 52 C20.8012077 58.75452889 21.21935688 65.17156446 21.25 72.125 C21.25902344 72.9715918 21.26804687 73.81818359 21.27734375 74.69042969 C21.25195375 80.11754266 20.51687428 84.7872495 19 90 C18.34 90 17.68 90 17 90 C16.67 92.31 16.34 94.62 16 97 C15.01 97.33 14.02 97.66 13 98 C12.896875 98.763125 12.79375 99.52625 12.6875 100.3125 C11.9309017 103.27011154 11.18227175 103.99230999 9 106 C7.82425289 108.09989652 7.82425289 108.09989652 7 110 C6.34 110 5.68 110 5 110 C4.34 111.32 3.68 112.64 3 114 C2.34 114 1.68 114 1 114 C0.67 114.99 0.34 115.98 0 117 C-3.24838923 115.91720359 -4.04282583 115.10963155 -6.1875 112.5625 C-6.71730469 111.94503906 -7.24710937 111.32757813 -7.79296875 110.69140625 C-9 109 -9 109 -9 107 C-9.66 107 -10.32 107 -11 107 C-11.433125 106.0409375 -11.433125 106.0409375 -11.875 105.0625 C-12.82823451 102.84793921 -12.82823451 102.84793921 -15 102 C-15.33 101.01 -15.66 100.02 -16 99 C-16.66 98.67 -17.32 98.34 -18 98 C-19.3749149 95.09740189 -20 93.23861295 -20 90 C-20.66 90 -21.32 90 -22 90 C-24.28571429 81.57142857 -24.28571429 81.57142857 -24 77 C-24.66 77 -25.32 77 -26 77 C-26 72.71 -26 68.42 -26 64 C-25.34 64 -24.68 64 -24 64 C-23.93941406 63.38511719 -23.87882812 62.77023437 -23.81640625 62.13671875 C-23.69072266 60.92435547 -23.69072266 60.92435547 -23.5625 59.6875 C-23.48128906 58.88699219 -23.40007812 58.08648437 -23.31640625 57.26171875 C-23 55 -23 55 -22 52 C-21.34 52 -20.68 52 -20 52 C-19.34 49.36 -18.68 46.72 -18 44 C-17.34 44 -16.68 44 -16 44 C-15.505 41.03 -15.505 41.03 -15 38 C-14.34 38 -13.68 38 -13 38 C-12.34 34.7 -11.68 31.4 -11 28 C-10.34 28 -9.68 28 -9 28 C-8.34 24.37 -7.68 20.74 -7 17 C-6.34 17 -5.68 17 -5 17 C-4.87882812 15.85660156 -4.75765625 14.71320313 -4.6328125 13.53515625 C-4.46402679 12.04421583 -4.29472953 10.55333327 -4.125 9.0625 C-4.04636719 8.30775391 -3.96773438 7.55300781 -3.88671875 6.77539062 C-3.66116192 4.84080701 -3.33741026 2.91823981 -3 1 C-1 0 -1 0 0 0 Z " fill="#C1A260" transform="translate(389,316)"/>
<path d="M0 0 C4.62 0 9.24 0 14 0 C14 0.66 14 1.32 14 2 C14.66 2 15.32 2 16 2 C16.01030746 3.14814178 16.02061493 4.29628357 16.03123474 5.47921753 C16.12883785 16.28029934 16.23155932 27.08132185 16.33933926 37.88230705 C16.39458896 43.4356777 16.44801223 48.98905359 16.49731445 54.54248047 C16.5449278 59.89820174 16.5972695 65.25385753 16.65294075 70.60950089 C16.67337805 72.65648908 16.69208882 74.70349524 16.70907402 76.75051498 C16.7330876 79.60962187 16.76314629 82.46860428 16.79467773 85.32763672 C16.80331093 86.60725281 16.80331093 86.60725281 16.81211853 87.91271973 C16.75544922 92.09018507 16.75544922 92.09018507 18 96 C19.88764903 96.68472665 19.88764903 96.68472665 22.0625 97.125 C22.79597656 97.29257812 23.52945313 97.46015625 24.28515625 97.6328125 C25.13400391 97.81457031 25.13400391 97.81457031 26 98 C26 98.66 26 99.32 26 100 C27.98 100 29.96 100 32 100 C32 102.64 32 105.28 32 108 C13.85 108 -4.3 108 -23 108 C-23 105.36 -23 102.72 -23 100 C-20.36 100 -17.72 100 -15 100 C-15 99.34 -15 98.68 -15 98 C-11.535 97.01 -11.535 97.01 -8 96 C-7.19009552 91.74115556 -6.87364241 87.71984165 -6.87060547 83.38720703 C-6.86745331 82.09211212 -6.86430115 80.79701721 -6.86105347 79.462677 C-6.86284391 78.06105515 -6.86489503 76.65943362 -6.8671875 75.2578125 C-6.86651295 73.80581649 -6.86554167 72.35382058 -6.86428833 70.90182495 C-6.86281752 67.86406373 -6.86494543 64.826332 -6.86962891 61.78857422 C-6.87531561 57.91308292 -6.87204998 54.03766105 -6.86605644 50.16217232 C-6.86242544 47.16457608 -6.86360122 44.16699602 -6.86618423 41.16939926 C-6.86684702 39.74139269 -6.86604797 38.3133846 -6.86370468 36.88537979 C-6.85468341 29.84124928 -6.88169154 22.9641632 -8 16 C-9.98 15.34 -11.96 14.68 -14 14 C-14 13.34 -14 12.68 -14 12 C-17.96 11.67 -21.92 11.34 -26 11 C-26 8.36 -26 5.72 -26 3 C-22.94080612 1.98026871 -20.87581975 1.88466398 -17.67578125 1.90234375 C-16.64775391 1.90556641 -15.61972656 1.90878906 -14.56054688 1.91210938 C-12.95276367 1.92467773 -12.95276367 1.92467773 -11.3125 1.9375 C-10.22904297 1.94201172 -9.14558594 1.94652344 -8.02929688 1.95117188 C-5.35280915 1.96296257 -2.67643223 1.97941937 0 2 C0 1.34 0 0.68 0 0 Z " fill="#1C1615" transform="translate(384,512)"/>
<path d="M0 0 C2.97 0 5.94 0 9 0 C9 0.66 9 1.32 9 2 C9.94875 2.103125 10.8975 2.20625 11.875 2.3125 C15 3 15 3 17 6 C17 6.99 17 7.98 17 9 C17.66 9 18.32 9 19 9 C19.2475 8.21625 19.495 7.4325 19.75 6.625 C21 4 21 4 22.875 2.6875 C25 2 25 2 29 2 C29 1.34 29 0.68 29 0 C32.3 0 35.6 0 39 0 C39 0.66 39 1.32 39 2 C40.98 2.66 42.96 3.32 45 4 C45 4.99 45 5.98 45 7 C45.66 7 46.32 7 47 7 C48.11865755 10.64658477 48.20370892 14.1536151 48.31640625 17.953125 C48.33718735 18.61334656 48.35796844 19.27356812 48.37937927 19.95379639 C48.44450147 22.05243015 48.50358502 24.15118372 48.5625 26.25 C48.60572079 27.67709547 48.6493362 29.10417905 48.69335938 30.53125 C48.80014411 34.02070722 48.90151566 37.51029753 49 41 C50.98 41.66 52.96 42.32 55 43 C55 43.99 55 44.98 55 46 C47.08 46 39.16 46 31 46 C31 45.01 31 44.02 31 43 C33.97 42.505 33.97 42.505 37 42 C36.93123657 37.62117544 36.84332917 33.24328479 36.73754883 28.86523438 C36.70426537 27.37543428 36.67624403 25.88550705 36.65356445 24.39550781 C36.62007929 22.25530748 36.56777211 20.11627581 36.51171875 17.9765625 C36.48553467 16.68830566 36.45935059 15.40004883 36.43237305 14.07275391 C36.21834839 12.55174072 36.21834839 12.55174072 36 11 C35.01 10.34 34.02 9.68 33 9 C33 8.34 33 7.68 33 7 C30.36 7 27.72 7 25 7 C25 7.66 25 8.32 25 9 C24.0409375 9.433125 24.0409375 9.433125 23.0625 9.875 C20.84793921 10.82823451 20.84793921 10.82823451 20 13 C19.91456105 15.10528933 19.89285275 17.21331157 19.90234375 19.3203125 C19.90556641 20.57714844 19.90878906 21.83398438 19.91210938 23.12890625 C19.92048828 24.44761719 19.92886719 25.76632812 19.9375 27.125 C19.94251511 28.46484211 19.94707799 29.804686 19.95117188 31.14453125 C19.96298914 34.42973206 19.97946383 37.71484397 20 41 C21.65 41.66 23.3 42.32 25 43 C25 43.99 25 44.98 25 46 C17.08 46 9.16 46 1 46 C1 45.01 1 44.02 1 43 C4.465 42.505 4.465 42.505 8 42 C8 31.77 8 21.54 8 11 C6.68 10.34 5.36 9.68 4 9 C4 8.34 4 7.68 4 7 C1.36 7 -1.28 7 -4 7 C-4 7.66 -4 8.32 -4 9 C-5.98 9.66 -7.96 10.32 -10 11 C-10 20.9 -10 30.8 -10 41 C-8.02 41.66 -6.04 42.32 -4 43 C-4 43.99 -4 44.98 -4 46 C-11.92 46 -19.84 46 -28 46 C-28 45.01 -28 44.02 -28 43 C-25.03 42.505 -25.03 42.505 -22 42 C-22.495 24.675 -22.495 24.675 -23 7 C-24.65 6.67 -26.3 6.34 -28 6 C-28 4.68 -28 3.36 -28 2 C-22.39 2 -16.78 2 -11 2 C-10.67 3.32 -10.34 4.64 -10 6 C-9.34 6 -8.68 6 -8 6 C-7.67 5.01 -7.34 4.02 -7 3 C-3.535 2.505 -3.535 2.505 0 2 C0 1.34 0 0.68 0 0 Z " fill="#1C1615" transform="translate(650,708)"/>
<path d="M0 0 C1.32 0 2.64 0 4 0 C4.33 21.45 4.66 42.9 5 65 C7.64 65.33 10.28 65.66 13 66 C13 67.32 13 68.64 13 70 C6.73 70 0.46 70 -6 70 C-6 69.01 -6 68.02 -6 67 C-6.66 67 -7.32 67 -8 67 C-8 67.66 -8 68.32 -8 69 C-10.37615986 70.18807993 -11.8511742 70.12914522 -14.5 70.1328125 C-15.8303125 70.13474609 -15.8303125 70.13474609 -17.1875 70.13671875 C-18.115625 70.13285156 -19.04375 70.12898437 -20 70.125 C-21.3921875 70.13080078 -21.3921875 70.13080078 -22.8125 70.13671875 C-23.699375 70.13542969 -24.58625 70.13414062 -25.5 70.1328125 C-26.3146875 70.13168457 -27.129375 70.13055664 -27.96875 70.12939453 C-30 70 -30 70 -32 69 C-32 68.34 -32 67.68 -32 67 C-33.32 66.34 -34.64 65.68 -36 65 C-36 64.01 -36 63.02 -36 62 C-36.66 62 -37.32 62 -38 62 C-40.11146834 57.70165373 -40.30235572 53.7614262 -40.25 49.0625 C-40.25773438 48.37220703 -40.26546875 47.68191406 -40.2734375 46.97070312 C-40.25693451 42.61803934 -39.73503304 39.00157269 -38 35 C-37.01 34.505 -37.01 34.505 -36 34 C-34.86649466 31.98330173 -34.86649466 31.98330173 -34 30 C-33.01 30 -32.02 30 -31 30 C-30.67 29.01 -30.34 28.02 -30 27 C-26.535 26.505 -26.535 26.505 -23 26 C-23 25.34 -23 24.68 -23 24 C-19.37 24 -15.74 24 -12 24 C-12 24.66 -12 25.32 -12 26 C-10.35 26 -8.7 26 -7 26 C-6.97309156 23.37493198 -6.95320596 20.75013827 -6.9375 18.125 C-6.92493164 17.00544922 -6.92493164 17.00544922 -6.91210938 15.86328125 C-6.79311916 11.80154422 -6.79311916 11.80154422 -8 8 C-9.88764903 7.31527335 -9.88764903 7.31527335 -12.0625 6.875 C-13.16271484 6.62363281 -13.16271484 6.62363281 -14.28515625 6.3671875 C-14.85105469 6.24601563 -15.41695312 6.12484375 -16 6 C-16 4.68 -16 3.36 -16 2 C-10.72 2 -5.44 2 0 2 C0 1.34 0 0.68 0 0 Z M-22 30 C-22.33 30.99 -22.66 31.98 -23 33 C-23.99 33 -24.98 33 -26 33 C-27.49821059 36.37097383 -28 38.20442119 -28 42 C-28.66 42 -29.32 42 -30 42 C-30 46.29 -30 50.58 -30 55 C-29.34 55 -28.68 55 -28 55 C-27.855625 55.94875 -27.71125 56.8975 -27.5625 57.875 C-27.17064601 60.8934494 -27.17064601 60.8934494 -26 63 C-25.34 63 -24.68 63 -24 63 C-24 63.66 -24 64.32 -24 65 C-21.40483479 66.29758261 -19.45816973 66.13269102 -16.5625 66.125 C-15.59441406 66.12757813 -14.62632812 66.13015625 -13.62890625 66.1328125 C-10.88982171 66.11213973 -10.88982171 66.11213973 -8 65 C-5.67068534 61.50602801 -5.74291972 60.07003178 -5.734375 55.94140625 C-5.73179687 54.75095703 -5.72921875 53.56050781 -5.7265625 52.33398438 C-5.73429687 51.08939453 -5.74203125 49.84480469 -5.75 48.5625 C-5.74226563 47.32177734 -5.73453125 46.08105469 -5.7265625 44.80273438 C-5.72914063 43.61099609 -5.73171875 42.41925781 -5.734375 41.19140625 C-5.73663086 40.10029541 -5.73888672 39.00918457 -5.74121094 37.88500977 C-5.99875378 35.01389299 -6.35598016 33.35256634 -8 31 C-11.14930893 29.95023036 -13.38814456 29.89868405 -16.6875 29.9375 C-17.68136719 29.94652344 -18.67523438 29.95554687 -19.69921875 29.96484375 C-20.45847656 29.97644531 -21.21773437 29.98804688 -22 30 Z " fill="#1C1615" transform="translate(170,684)"/>
<path d="M0 0 C1.32 0 2.64 0 4 0 C5.37332694 2.74665389 5.11964892 4.93624068 5.11352539 8.01025391 C5.11344986 9.27141022 5.11337433 10.53256653 5.11329651 11.8319397 C5.10818949 13.21348103 5.10297349 14.59502196 5.09765625 15.9765625 C5.09579144 17.3861791 5.09436783 18.79579634 5.09336853 20.20541382 C5.08954833 23.91753932 5.07972228 27.62962578 5.06866455 31.34173584 C5.05843975 35.12886019 5.05386862 38.91599083 5.04882812 42.703125 C5.03809958 50.13543448 5.02102911 57.56771177 5 65 C7.64 65.33 10.28 65.66 13 66 C13 67.32 13 68.64 13 70 C7.06 70 1.12 70 -5 70 C-5 69.01 -5 68.02 -5 67 C-5.66 67 -6.32 67 -7 67 C-7 67.66 -7 68.32 -7 69 C-11.25883428 70.41961143 -15.34908674 70.38514448 -19.8125 70.5 C-20.70259766 70.55414062 -21.59269531 70.60828125 -22.50976562 70.6640625 C-29.02370294 70.79926654 -29.02370294 70.79926654 -31.90380859 68.44140625 C-33.51171875 66.53125 -33.51171875 66.53125 -34.8503418 64.61132812 C-35.92137968 62.84416161 -35.92137968 62.84416161 -38 62 C-40.70404419 53.88786742 -41.45927919 44.99958312 -38 37 C-37.34 37 -36.68 37 -36 37 C-35.9175 36.443125 -35.835 35.88625 -35.75 35.3125 C-34.43964461 31.27223756 -32.25390726 28.65830131 -28.5 26.6875 C-26 26 -26 26 -22 26 C-22 25.34 -22 24.68 -22 24 C-18.37 24 -14.74 24 -11 24 C-11 24.66 -11 25.32 -11 26 C-9.02 26.33 -7.04 26.66 -5 27 C-5 21.39 -5 15.78 -5 10 C-5.66 10 -6.32 10 -7 10 C-7 9.01 -7 8.02 -7 7 C-9.97 6.67 -12.94 6.34 -16 6 C-16 4.68 -16 3.36 -16 2 C-10.72 2 -5.44 2 0 2 C0 1.34 0 0.68 0 0 Z M-25.125 32 C-27.53764831 35.8602373 -27.77027849 38.48214361 -28 43 C-28.66 43 -29.32 43 -30 43 C-30 46.63 -30 50.26 -30 54 C-29.34 54 -28.68 54 -28 54 C-27.938125 55.051875 -27.87625 56.10375 -27.8125 57.1875 C-27.22124718 61.00973778 -27.22124718 61.00973778 -25.1875 63.9375 C-20.42630413 67.0182738 -15.52049678 67.06445749 -10 66 C-7.24607641 64.44048591 -7.24607641 64.44048591 -5 62 C-4.26577578 58.96941055 -4.26577578 58.96941055 -4.40625 55.58984375 C-4.40882813 54.35298828 -4.41140625 53.11613281 -4.4140625 51.84179688 C-4.44242188 50.55337891 -4.47078125 49.26496094 -4.5 47.9375 C-4.49742187 46.64521484 -4.49484375 45.35292969 -4.4921875 44.02148438 C-4.17222464 37.75570058 -4.17222464 37.75570058 -6.34179688 32.17016602 C-11.65240924 28.42255632 -19.83925826 28.61712529 -25.125 32 Z " fill="#1C1615" transform="translate(873,684)"/>
<path d="M0 0 C3.3 0 6.6 0 10 0 C10 0.66 10 1.32 10 2 C11.423125 2.12375 11.423125 2.12375 12.875 2.25 C16 3 16 3 17.375 4.8125 C18 7 18 7 18 11 C18.66 11 19.32 11 20 11 C20.33 20.9 20.66 30.8 21 41 C22.65 41.66 24.3 42.32 26 43 C26 43.99 26 44.98 26 46 C18.08 46 10.16 46 2 46 C2 45.01 2 44.02 2 43 C4.31 42.67 6.62 42.34 9 42 C8.93123657 37.62117544 8.84332917 33.24328479 8.73754883 28.86523438 C8.70426537 27.37543428 8.67624403 25.88550705 8.65356445 24.39550781 C8.62007929 22.25530748 8.56777211 20.11627581 8.51171875 17.9765625 C8.48553467 16.68830566 8.45935059 15.40004883 8.43237305 14.07275391 C8.21834839 12.55174072 8.21834839 12.55174072 8 11 C7.01 10.34 6.02 9.68 5 9 C5 8.34 5 7.68 5 7 C2.36 7 -0.28 7 -3 7 C-3 7.66 -3 8.32 -3 9 C-3.969375 9.268125 -4.93875 9.53625 -5.9375 9.8125 C-6.948125 10.204375 -7.95875 10.59625 -9 11 C-10.11911712 14.35735137 -10.11365586 16.88205386 -10.09765625 20.41796875 C-10.09282227 22.29838867 -10.09282227 22.29838867 -10.08789062 24.21679688 C-10.07951172 25.52712891 -10.07113281 26.83746094 -10.0625 28.1875 C-10.05748317 29.52278481 -10.05292059 30.85807141 -10.04882812 32.19335938 C-10.03702695 35.46228473 -10.02056297 38.73111991 -10 42 C-6.535 42.495 -6.535 42.495 -3 43 C-3 43.99 -3 44.98 -3 46 C-10.92 46 -18.84 46 -27 46 C-27 45.01 -27 44.02 -27 43 C-25.35 42.34 -23.7 41.68 -22 41 C-22 29.78 -22 18.56 -22 7 C-24.31 6.67 -26.62 6.34 -29 6 C-29 4.68 -29 3.36 -29 2 C-23.06 2 -17.12 2 -11 2 C-10.67 3.32 -10.34 4.64 -10 6 C-9.01 6 -8.02 6 -7 6 C-6.67 5.01 -6.34 4.02 -6 3 C-4.02 2.67 -2.04 2.34 0 2 C0 1.34 0 0.68 0 0 Z " fill="#1C1615" transform="translate(95,708)"/>
<path d="M0 0 C10.23 0 20.46 0 31 0 C31 1.32 31 2.64 31 4 C26.545 4.495 26.545 4.495 22 5 C22.495 31.235 22.495 31.235 23 58 C30.26 58 37.52 58 45 58 C45.66 56.68 46.32 55.36 47 54 C47.66 54 48.32 54 49 54 C49.144375 53.401875 49.28875 52.80375 49.4375 52.1875 C49.8872439 50.43849596 50.42892341 48.71322977 51 47 C51.66 47 52.32 47 53 47 C53 46.01 53 45.02 53 44 C54.32 44 55.64 44 57 44 C57.02683987 46.97922593 57.04676037 49.95821295 57.0625 52.9375 C57.07087891 53.78763672 57.07925781 54.63777344 57.08789062 55.51367188 C57.09111328 56.32255859 57.09433594 57.13144531 57.09765625 57.96484375 C57.10289307 58.7137085 57.10812988 59.46257324 57.11352539 60.23413086 C57 62 57 62 56 63 C54.2507128 63.09365006 52.49763746 63.11744438 50.74584961 63.11352539 C49.62476303 63.11344986 48.50367645 63.11337433 47.34861755 63.11329651 C45.51896202 63.10555458 45.51896202 63.10555458 43.65234375 63.09765625 C42.41078018 63.0962413 41.16921661 63.09482635 39.89002991 63.09336853 C36.58394509 63.08870591 33.27792854 63.07971497 29.97186279 63.06866455 C26.6003885 63.05844827 23.22890717 63.05387045 19.85742188 63.04882812 C13.23826225 63.03777395 6.61913507 63.02101736 0 63 C0 62.01 0 61.02 0 60 C3.3 59.34 6.6 58.68 10 58 C10 41.17 10 24.34 10 7 C9.34 7 8.68 7 8 7 C8 6.34 8 5.68 8 5 C5.36 4.67 2.72 4.34 0 4 C0 2.68 0 1.36 0 0 Z " fill="#1C1615" transform="translate(527,691)"/>
<path d="M0 0 C5.94 0 11.88 0 18 0 C18.06058594 2.48015625 18.12117188 4.9603125 18.18359375 7.515625 C18.24542939 9.92174183 18.3087979 12.32781375 18.37231445 14.73388672 C18.41558489 16.40409334 18.45726549 18.07434194 18.49731445 19.74462891 C18.55520851 22.14758955 18.6188474 24.55034041 18.68359375 26.953125 C18.70030624 27.69806213 18.71701874 28.44299927 18.73423767 29.21051025 C18.83309323 32.68205988 19.15166747 35.60666987 20 39 C24.62 39 29.24 39 34 39 C34.33 38.01 34.66 37.02 35 36 C35.66 35.67 36.32 35.34 37 35 C37 26.09 37 17.18 37 8 C36.34 7.67 35.68 7.34 35 7 C35 6.34 35 5.68 35 5 C33.02 4.67 31.04 4.34 29 4 C29 2.68 29 1.36 29 0 C34.94 0 40.88 0 47 0 C47 12.21 47 24.42 47 37 C47.66 37 48.32 37 49 37 C49.33 37.66 49.66 38.32 50 39 C52.52733235 39.65555119 52.52733235 39.65555119 55 40 C55 41.32 55 42.64 55 44 C49.39 44 43.78 44 38 44 C37.505 42.02 37.505 42.02 37 40 C36.566875 40.474375 36.13375 40.94875 35.6875 41.4375 C32.87315574 44.04337431 30.20786787 44.12220046 26.55078125 44.09765625 C25.70322266 44.09443359 24.85566406 44.09121094 23.98242188 44.08789062 C23.10134766 44.07951172 22.22027344 44.07113281 21.3125 44.0625 C20.41982422 44.05798828 19.52714844 44.05347656 18.60742188 44.04882812 C16.40488013 44.03704983 14.20247401 44.02060164 12 44 C10.5393715 41.35261084 10 40.10551666 10 37 C9.34 37 8.68 37 8 37 C7.97494385 36.13721436 7.9498877 35.27442871 7.92407227 34.38549805 C7.82888615 31.18176231 7.72965556 27.97818463 7.62768555 24.7746582 C7.58439782 23.38864017 7.54271836 22.00257094 7.50268555 20.61645508 C7.44483416 18.62308202 7.38070224 16.62989435 7.31640625 14.63671875 C7.27974854 13.43748779 7.24309082 12.23825684 7.20532227 11.00268555 C7.12266975 7.95005651 7.12266975 7.95005651 6 5 C3.03 4.505 3.03 4.505 0 4 C0 2.68 0 1.36 0 0 Z " fill="#1C1615" transform="translate(187,710)"/>
<path d="M0 0 C3.63 0 7.26 0 11 0 C11 0.66 11 1.32 11 2 C12.11375 2.144375 13.2275 2.28875 14.375 2.4375 C18 3 18 3 20 4 C20 4.66 20 5.32 20 6 C20.66 6 21.32 6 22 6 C23.49821059 9.37097383 24 11.20442119 24 15 C24.66 15 25.32 15 26 15 C26 17.64 26 20.28 26 23 C15.44 23 4.88 23 -6 23 C-5.34 27.62 -4.68 32.24 -4 37 C-2.68 37.66 -1.36 38.32 0 39 C0 39.66 0 40.32 0 41 C5.94 41 11.88 41 18 41 C18.66 39.02 19.32 37.04 20 35 C22.97 34.505 22.97 34.505 26 34 C26 35.32 26 36.64 26 38 C25.34 38 24.68 38 24 38 C23.67 39.32 23.34 40.64 23 42 C22.0409375 42.1546875 22.0409375 42.1546875 21.0625 42.3125 C20.381875 42.539375 19.70125 42.76625 19 43 C18.67 43.99 18.34 44.98 18 46 C14.22918278 46.02899599 10.45839417 46.04679729 6.6875 46.0625 C5.0797168 46.07506836 5.0797168 46.07506836 3.43945312 46.08789062 C2.41142578 46.09111328 1.38339844 46.09433594 0.32421875 46.09765625 C-0.62364502 46.10289307 -1.57150879 46.10812988 -2.5480957 46.11352539 C-5 46 -5 46 -8 45 C-9.69088222 43.02043058 -11.35830472 41.02054804 -13 39 C-13.66 38.67 -14.32 38.34 -15 38 C-17.97391213 29.07826362 -17.97391213 19.92173638 -15 11 C-14.34 10.67 -13.68 10.34 -13 10 C-11.86649466 7.98330173 -11.86649466 7.98330173 -11 6 C-10.01 6 -9.02 6 -8 6 C-8 5.34 -8 4.68 -8 4 C-4.91190305 2.23537317 -3.76687864 2 0 2 C0 1.34 0 0.68 0 0 Z M4 4 C4 4.66 4 5.32 4 6 C2.02 6.33 0.04 6.66 -2 7 C-2 7.66 -2 8.32 -2 9 C-2.66 9 -3.32 9 -4 9 C-5.49821059 12.37097383 -6 14.20442119 -6 18 C0.93 18 7.86 18 15 18 C14.67 15.36 14.34 12.72 14 10 C13.34 10 12.68 10 12 10 C11.67 8.68 11.34 7.36 11 6 C9.68 6 8.36 6 7 6 C7 5.34 7 4.68 7 4 C6.01 4 5.02 4 4 4 Z " fill="#1B1615" transform="translate(425,708)"/>
<path d="M0 0 C3.63 0 7.26 0 11 0 C11 0.66 11 1.32 11 2 C11.9075 2.0825 12.815 2.165 13.75 2.25 C17.42008088 3.09694174 18.69866328 4.07907263 21 7 C21 7.66 21 8.32 21 9 C21.66 9 22.32 9 23 9 C24.41779633 14.13951171 25 17.50953976 25 23 C14.44 23 3.88 23 -7 23 C-7 25.31 -7 27.62 -7 30 C-6.34 30 -5.68 30 -5 30 C-4.731875 31.11375 -4.46375 32.2275 -4.1875 33.375 C-3.34190981 37.21840951 -3.34190981 37.21840951 0 39 C0 39.66 0 40.32 0 41 C4.95 41 9.9 41 15 41 C15.495 40.01 15.495 40.01 16 39 C16.99 38.67 17.98 38.34 19 38 C20.20882096 35.99983534 20.20882096 35.99983534 21 34 C23.97 34.495 23.97 34.495 27 35 C27 35.66 27 36.32 27 37 C26.01 37.495 26.01 37.495 25 38 C24.71125 38.66 24.4225 39.32 24.125 40 C23 42 23 42 20.875 42.75 C20.25625 42.8325 19.6375 42.915 19 43 C19 43.66 19 44.32 19 45 C16.52657832 46.23671084 14.86140689 46.12931819 12.09765625 46.1328125 C11.12505859 46.13410156 10.15246094 46.13539063 9.15039062 46.13671875 C7.62188477 46.13091797 7.62188477 46.13091797 6.0625 46.125 C5.04736328 46.12886719 4.03222656 46.13273438 2.98632812 46.13671875 C2.01244141 46.13542969 1.03855469 46.13414062 0.03515625 46.1328125 C-1.30470337 46.13112061 -1.30470337 46.13112061 -2.67163086 46.12939453 C-5 46 -5 46 -8 45 C-9.69088222 43.02043058 -11.35830472 41.02054804 -13 39 C-13.66 38.67 -14.32 38.34 -15 38 C-15.59355614 35.35139573 -15.74209269 32.70802678 -16 30 C-16.66 30 -17.32 30 -18 30 C-18 26.37 -18 22.74 -18 19 C-17.34 19 -16.68 19 -16 19 C-15.87625 17.700625 -15.7525 16.40125 -15.625 15.0625 C-15.4140625 12.84765625 -15.4140625 12.84765625 -15 11 C-14.34 10.67 -13.68 10.34 -13 10 C-11.86649466 7.98330173 -11.86649466 7.98330173 -11 6 C-10.01 6 -9.02 6 -8 6 C-7.67 5.01 -7.34 4.02 -7 3 C-3.535 2.505 -3.535 2.505 0 2 C0 1.34 0 0.68 0 0 Z M4 4 C4 4.66 4 5.32 4 6 C2.329375 6.12375 2.329375 6.12375 0.625 6.25 C-3.01022611 6.59015529 -3.01022611 6.59015529 -4.4375 8.875 C-5.12794628 11.11698792 -5.12794628 11.11698792 -5 14 C-5.66 14 -6.32 14 -7 14 C-7 15.32 -7 16.64 -7 18 C0.26 18 7.52 18 15 18 C15 16.68 15 15.36 15 14 C14.34 14 13.68 14 13 14 C12.67 11.69 12.34 9.38 12 7 C9.525 6.505 9.525 6.505 7 6 C7 5.34 7 4.68 7 4 C6.01 4 5.02 4 4 4 Z " fill="#1B1615" transform="translate(799,708)"/>
<path d="M0 0 C3.96 0 7.92 0 12 0 C12 0.66 12 1.32 12 2 C13.98 2 15.96 2 18 2 C18 1.34 18 0.68 18 0 C19.32 0 20.64 0 22 0 C22.495 7.425 22.495 7.425 23 15 C20.525 14.505 20.525 14.505 18 14 C18 13.01 18 12.02 18 11 C16.68 10.34 15.36 9.68 14 9 C14 8.34 14 7.68 14 7 C9.38 7 4.76 7 0 7 C-0.33 9.64 -0.66 12.28 -1 15 C-0.01 15 0.98 15 2 15 C2 15.66 2 16.32 2 17 C5.3 17.66 8.6 18.32 12 19 C12 19.66 12 20.32 12 21 C14.31 21.33 16.62 21.66 19 22 C19.33 22.99 19.66 23.98 20 25 C22.00016466 26.20882096 22.00016466 26.20882096 24 27 C24 28.32 24 29.64 24 31 C24.66 31 25.32 31 26 31 C26 32.32 26 33.64 26 35 C25.34 35 24.68 35 24 35 C23.67 37.31 23.34 39.62 23 42 C22.01 42.33 21.02 42.66 20 43 C20 43.66 20 44.32 20 45 C17.12981559 46.43509221 14.66456277 46.11158506 11.4609375 46.09765625 C10.15898437 46.09443359 8.85703125 46.09121094 7.515625 46.08789062 C6.13541601 46.07953466 4.75520768 46.07106971 3.375 46.0625 C1.98698074 46.05748501 0.59895978 46.0529221 -0.7890625 46.04882812 C-4.19275132 46.03700976 -7.59635439 46.02053434 -11 46 C-11.75466911 40.88444017 -12.09043958 36.15505593 -12 31 C-8.25 29.875 -8.25 29.875 -6 31 C-5.71125 31.928125 -5.4225 32.85625 -5.125 33.8125 C-3.91661223 37.23626536 -2.78110283 38.72455223 0 41 C3.14930893 42.04976964 5.38814456 42.10131595 8.6875 42.0625 C9.68136719 42.05347656 10.67523438 42.04445313 11.69921875 42.03515625 C12.83810547 42.01775391 12.83810547 42.01775391 14 42 C14.66 40.35 15.32 38.7 16 37 C16.66 37 17.32 37 18 37 C18 36.34 18 35.68 18 35 C17.34 35 16.68 35 16 35 C15.67 33.68 15.34 32.36 15 31 C11.37 30.34 7.74 29.68 4 29 C4 28.34 4 27.68 4 27 C3.071875 26.855625 2.14375 26.71125 1.1875 26.5625 C-3.55947124 25.72479919 -5.86960631 24.67011674 -9 21 C-9 20.01 -9 19.02 -9 18 C-9.66 18 -10.32 18 -11 18 C-11 15.69 -11 13.38 -11 11 C-10.34 11 -9.68 11 -9 11 C-8.67 9.35 -8.34 7.7 -8 6 C-7.34 6 -6.68 6 -6 6 C-5.67 5.01 -5.34 4.02 -5 3 C-3.35 2.67 -1.7 2.34 0 2 C0 1.34 0 0.68 0 0 Z " fill="#1B1615" transform="translate(261,708)"/>
<path d="M0 0 C10.56 0 21.12 0 32 0 C32 1.32 32 2.64 32 4 C27.545 4.495 27.545 4.495 23 5 C22.97470826 12.22655492 22.95715781 19.4530985 22.94506836 26.6796875 C22.94003011 29.13965278 22.9331994 31.59961505 22.92456055 34.05957031 C22.91247277 37.58920025 22.90676671 41.11879069 22.90234375 44.6484375 C22.89718246 45.75367767 22.89202118 46.85891785 22.88670349 47.99765015 C22.88662796 49.01855743 22.88655243 50.03946472 22.88647461 51.09130859 C22.88314369 52.44366104 22.88314369 52.44366104 22.87974548 53.82333374 C22.8580715 56.04713748 22.8580715 56.04713748 24 58 C25.88764903 58.68472665 25.88764903 58.68472665 28.0625 59.125 C28.79597656 59.29257812 29.52945313 59.46015625 30.28515625 59.6328125 C31.13400391 59.81457031 31.13400391 59.81457031 32 60 C32 60.99 32 61.98 32 63 C21.44 63 10.88 63 0 63 C0 62.01 0 61.02 0 60 C3.63 59.34 7.26 58.68 11 58 C11 41.17 11 24.34 11 7 C10.34 7 9.68 7 9 7 C9 6.34 9 5.68 9 5 C6.03 4.67 3.06 4.34 0 4 C0 2.68 0 1.36 0 0 Z " fill="#1C1615" transform="translate(26,691)"/>
<path d="M0 0 C3.96 0 7.92 0 12 0 C12 0.66 12 1.32 12 2 C13.65 2 15.3 2 17 2 C17 1.34 17 0.68 17 0 C18.32 0 19.64 0 21 0 C21 4.29 21 8.58 21 13 C21.66 13 22.32 13 23 13 C23 13.66 23 14.32 23 15 C21.02 15 19.04 15 17 15 C16.731875 14.236875 16.46375 13.47375 16.1875 12.6875 C14.98614924 9.96865354 14.35822198 8.74833698 12 7 C9.02807238 6.63680691 9.02807238 6.63680691 5.8125 6.8125 C4.18248047 6.85310547 4.18248047 6.85310547 2.51953125 6.89453125 C1.68808594 6.92933594 0.85664063 6.96414063 0 7 C-0.33 7.66 -0.66 8.32 -1 9 C-1.66 9 -2.32 9 -3 9 C-3 10.32 -3 11.64 -3 13 C-2.34 13 -1.68 13 -1 13 C-0.67 14.32 -0.34 15.64 0 17 C1.2375 17.144375 2.475 17.28875 3.75 17.4375 C6.56504499 17.78688502 9.2701497 18.20379366 12 19 C12 19.66 12 20.32 12 21 C13.051875 21.061875 14.10375 21.12375 15.1875 21.1875 C19 22 19 22 21.9375 23.8125 C25.06210837 28.64144021 24.55867915 33.39724624 24 39 C22.9893322 42.03200339 22.36506843 42.99878825 20 45 C16.58248347 46.13917218 13.96512063 46.11338481 10.36328125 46.09765625 C9.06455078 46.09443359 7.76582031 46.09121094 6.42773438 46.08789062 C5.05598892 46.07953531 3.68424413 46.07107037 2.3125 46.0625 C0.92903805 46.05748335 -0.45442563 46.05292073 -1.83789062 46.04882812 C-5.22527896 46.03702538 -8.6126449 46.01908967 -12 46 C-12 40.72 -12 35.44 -12 30 C-10.68 30 -9.36 30 -8 30 C-7.67 31.65 -7.34 33.3 -7 35 C-6.34 35 -5.68 35 -5 35 C-4.34 36.98 -3.68 38.96 -3 41 C2.93363723 42.21715636 9.18890818 42.93703061 15 41 C15 37.7 15 34.4 15 31 C11.37 30.34 7.74 29.68 4 29 C4 28.34 4 27.68 4 27 C2.88625 26.855625 1.7725 26.71125 0.625 26.5625 C-3 26 -3 26 -5 25 C-5 24.34 -5 23.68 -5 23 C-6.32 22.34 -7.64 21.68 -9 21 C-9 20.01 -9 19.02 -9 18 C-9.66 18 -10.32 18 -11 18 C-11 15.36 -11 12.72 -11 10 C-10.34 10 -9.68 10 -9 10 C-8.896875 9.401875 -8.79375 8.80375 -8.6875 8.1875 C-7.87678951 5.60796663 -7.15744833 4.61808625 -5 3 C-2.3125 2.3125 -2.3125 2.3125 0 2 C0 1.34 0 0.68 0 0 Z " fill="#1B1615" transform="translate(471,708)"/>
<path d="M0 0 C6.25 -0.48076923 6.25 -0.48076923 9.4375 1.5625 C11.55418511 4.86452877 11.35028204 7.14689752 11 11 C10.67 11.99 10.34 12.98 10 14 C2.25 14.125 2.25 14.125 0 13 C0 11.02 0 9.04 0 7 C-1.32 7 -2.64 7 -4 7 C-4.33 7.99 -4.66 8.98 -5 10 C-5.99 10.33 -6.98 10.66 -8 11 C-8 20.9 -8 30.8 -8 41 C-5.69 41.66 -3.38 42.32 -1 43 C-1 43.99 -1 44.98 -1 46 C-9.58 46 -18.16 46 -27 46 C-27 45.01 -27 44.02 -27 43 C-23.535 42.505 -23.535 42.505 -20 42 C-20.495 24.675 -20.495 24.675 -21 7 C-23.97 6.505 -23.97 6.505 -27 6 C-27 4.68 -27 3.36 -27 2 C-21.06 2 -15.12 2 -9 2 C-9 3.32 -9 4.64 -9 6 C-8.01 6 -7.02 6 -6 6 C-5.67 5.01 -5.34 4.02 -5 3 C-3.35 2.67 -1.7 2.34 0 2 C0 1.34 0 0.68 0 0 Z " fill="#1C1615" transform="translate(359,708)"/>
<path d="M0 0 C2.97 0 5.94 0 9 0 C9 4.62 9 9.24 9 14 C13.29 14 17.58 14 22 14 C22 15.65 22 17.3 22 19 C17.71 19 13.42 19 9 19 C9.33 29.56 9.66 40.12 10 51 C10.66 51 11.32 51 12 51 C12 51.66 12 52.32 12 53 C15.96 53 19.92 53 24 53 C24 54.32 24 55.64 24 57 C21.59940183 58.20029908 20.10639351 58.11459743 17.4296875 58.09765625 C16.53378906 58.09443359 15.63789062 58.09121094 14.71484375 58.08789062 C13.30912109 58.07532227 13.30912109 58.07532227 11.875 58.0625 C10.45767578 58.05573242 10.45767578 58.05573242 9.01171875 58.04882812 C6.67441613 58.03702357 4.33723939 58.02055759 2 58 C-0.50916948 54.19717566 -0.25607884 50.33837961 -0.1953125 45.953125 C-0.1924826 45.18192322 -0.18965271 44.41072144 -0.18673706 43.6161499 C-0.17557013 41.16060668 -0.15047229 38.7054324 -0.125 36.25 C-0.11496568 34.58203653 -0.10584061 32.91406732 -0.09765625 31.24609375 C-0.07564225 27.16392103 -0.04113667 23.082023 0 19 C-3.3 19 -6.6 19 -10 19 C-10 17.35 -10 15.7 -10 14 C-6.7 14 -3.4 14 0 14 C0 9.38 0 4.76 0 0 Z " fill="#1C1716" transform="translate(751,696)"/>
<path d="M0 0 C2.97 0 5.94 0 9 0 C9 4.62 9 9.24 9 14 C13.29 14 17.58 14 22 14 C22 15.65 22 17.3 22 19 C17.71 19 13.42 19 9 19 C9.495 34.345 9.495 34.345 10 50 C10.66 50.33 11.32 50.66 12 51 C12 51.66 12 52.32 12 53 C15.96 53 19.92 53 24 53 C24 54.32 24 55.64 24 57 C21.59940183 58.20029908 20.10639351 58.11459743 17.4296875 58.09765625 C16.53378906 58.09443359 15.63789063 58.09121094 14.71484375 58.08789062 C13.30912109 58.07532227 13.30912109 58.07532227 11.875 58.0625 C10.45767578 58.05573242 10.45767578 58.05573242 9.01171875 58.04882812 C6.67441613 58.03702357 4.33723939 58.02055759 2 58 C-0.50916948 54.19717566 -0.25607884 50.33837961 -0.1953125 45.953125 C-0.1924826 45.18192322 -0.18965271 44.41072144 -0.18673706 43.6161499 C-0.17557013 41.16060668 -0.15047229 38.7054324 -0.125 36.25 C-0.11496568 34.58203653 -0.10584061 32.91406732 -0.09765625 31.24609375 C-0.07564225 27.16392103 -0.04113667 23.082023 0 19 C-3.3 19 -6.6 19 -10 19 C-10 17.35 -10 15.7 -10 14 C-6.7 14 -3.4 14 0 14 C0 9.38 0 4.76 0 0 Z " fill="#1C1716" transform="translate(302,696)"/>
<path d="M0 0 C0.97066406 -0.00257813 1.94132812 -0.00515625 2.94140625 -0.0078125 C5.4375 0.125 5.4375 0.125 7.4375 1.125 C7.4375 1.785 7.4375 2.445 7.4375 3.125 C8.7575 3.455 10.0775 3.785 11.4375 4.125 C11.4375 5.115 11.4375 6.105 11.4375 7.125 C12.0975 7.125 12.7575 7.125 13.4375 7.125 C14.73508261 9.72016521 14.57019102 11.66683027 14.5625 14.5625 C14.56636719 16.01462891 14.56636719 16.01462891 14.5703125 17.49609375 C14.35751018 21.70832797 13.67127598 22.91111985 10.5 25.8125 C7.4375 28.125 7.4375 28.125 5.4375 28.125 C5.4375 28.785 5.4375 29.445 5.4375 30.125 C2.1375 30.125 -1.1625 30.125 -4.5625 30.125 C-4.5625 29.465 -4.5625 28.805 -4.5625 28.125 C-6.5425 27.465 -8.5225 26.805 -10.5625 26.125 C-10.5625 25.465 -10.5625 24.805 -10.5625 24.125 C-11.2225 24.125 -11.8825 24.125 -12.5625 24.125 C-12.8925 22.145 -13.2225 20.165 -13.5625 18.125 C-14.2225 18.125 -14.8825 18.125 -15.5625 18.125 C-15.5625 16.145 -15.5625 14.165 -15.5625 12.125 C-14.9025 12.125 -14.2425 12.125 -13.5625 12.125 C-13.48 11.0525 -13.3975 9.98 -13.3125 8.875 C-12.4996841 4.81092048 -11.79155115 3.59427441 -8.5625 1.125 C-5.46186477 0.09145492 -3.24805932 -0.00864996 0 0 Z " fill="#1C1615" transform="translate(386.5625,456.875)"/>
<path d="M0 0 C6.27 0 12.54 0 19 0 C19.33 12.87 19.66 25.74 20 39 C21.65 39.66 23.3 40.32 25 41 C25 41.99 25 42.98 25 44 C17.08 44 9.16 44 1 44 C1 43.01 1 42.02 1 41 C3.31 40.34 5.62 39.68 8 39 C8.024727 34.64005933 8.04287281 30.28015586 8.05493164 25.92016602 C8.05995903 24.43708587 8.06678185 22.95401067 8.07543945 21.47094727 C8.08757482 19.33869199 8.09324425 17.20650227 8.09765625 15.07421875 C8.10289307 13.79119873 8.10812988 12.50817871 8.11352539 11.1862793 C8.14927176 7.9774026 8.14927176 7.9774026 7 5 C4.69 4.67 2.38 4.34 0 4 C0 2.68 0 1.36 0 0 Z " fill="#1D1715" transform="translate(588,710)"/>
<path d="M0 0 C6.27 0 12.54 0 19 0 C19.33 12.87 19.66 25.74 20 39 C21.98 39.66 23.96 40.32 26 41 C26 41.99 26 42.98 26 44 C18.41 44 10.82 44 3 44 C3 43.01 3 42.02 3 41 C5.31 40.34 7.62 39.68 10 39 C10 28.77 10 18.54 10 8 C9.01 7.67 8.02 7.34 7 7 C7 6.34 7 5.68 7 5 C4.69 4.67 2.38 4.34 0 4 C0 2.68 0 1.36 0 0 Z " fill="#1C1615" transform="translate(374,710)"/>
<path d="M0 0 C5.61 0 11.22 0 17 0 C17.495 19.8 17.495 19.8 18 40 C21.465 40.495 21.465 40.495 25 41 C25 41.99 25 42.98 25 44 C17.08 44 9.16 44 1 44 C1 43.01 1 42.02 1 41 C4.465 40.505 4.465 40.505 8 40 C8 29.44 8 18.88 8 8 C7.01 7.67 6.02 7.34 5 7 C5 6.34 5 5.68 5 5 C3.35 4.67 1.7 4.34 0 4 C0 2.68 0 1.36 0 0 Z " fill="#1C1615" transform="translate(712,710)"/>
<path d="M0 0 C1.23076923 6.4 1.23076923 6.4 0.0625 9.4375 C-0.288125 9.953125 -0.63875 10.46875 -1 11 C-8.35678392 11.36180905 -8.35678392 11.36180905 -11 9.875 C-12.47901666 7.10184376 -12.38601984 5.08815875 -12 2 C-8.29595992 -2.88259829 -5.45763589 -1.71814463 0 0 Z " fill="#1C1615" transform="translate(393,688)"/>
<path d="M0 0 C1.38550197 2.77100394 1.1877467 4.9334706 1 8 C0.01 9.485 0.01 9.485 -1 11 C-2.875 11.328125 -2.875 11.328125 -5 11.25 C-5.70125 11.23453125 -6.4025 11.2190625 -7.125 11.203125 C-9 11 -9 11 -11 10 C-11.77811718 6.18015204 -12.24386556 3.73159669 -11 0 C-6.67733211 -2.06309149 -4.20396945 -2.40226826 0 0 Z " fill="#1C1615" transform="translate(729,688)"/>
<path d="M0 0 C1.125 6.625 1.125 6.625 0 10 C-2.21295616 11.10647808 -3.54672699 11.19588368 -6 11.25 C-7.051875 11.28867187 -7.051875 11.28867187 -8.125 11.328125 C-8.74375 11.21984375 -9.3625 11.1115625 -10 11 C-12.31332486 7.53001271 -12.33957563 6.07490752 -12 2 C-8.43294024 -3.35058964 -5.52365393 -1.77173805 0 0 Z " fill="#1C1615" transform="translate(607,688)"/>
</svg>
